<?xml version="1.0" encoding="UTF-8" standalone="no"?>
<!-- Created with Inkscape (http://www.inkscape.org/) -->

<svg
   width="667"
   height="667"
   viewBox="0 0 176.47708 176.47708"
   version="1.1"
   id="svg1"
   sodipodi:docname="icon.svg"
   inkscape:version="1.3.2 (091e20ef0f, 2023-11-25, custom)"
   xmlns:inkscape="http://www.inkscape.org/namespaces/inkscape"
   xmlns:sodipodi="http://sodipodi.sourceforge.net/DTD/sodipodi-0.dtd"
   xmlns="http://www.w3.org/2000/svg"
   xmlns:svg="http://www.w3.org/2000/svg">
  <sodipodi:namedview
     id="namedview1"
     pagecolor="#ffffff"
     bordercolor="#000000"
     borderopacity="0.25"
     inkscape:showpageshadow="2"
     inkscape:pageopacity="0.0"
     inkscape:pagecheckerboard="0"
     inkscape:deskcolor="#d1d1d1"
     inkscape:document-units="mm"
     inkscape:zoom="1.338952"
     inkscape:cx="396.57881"
     inkscape:cy="328.24178"
     inkscape:window-width="3072"
     inkscape:window-height="1700"
     inkscape:window-x="0"
     inkscape:window-y="0"
     inkscape:window-maximized="1"
     inkscape:current-layer="layer1" />
  <defs
     id="defs1">
    <clipPath
       clipPathUnits="userSpaceOnUse"
       id="clipPath59">
      <path
         d="m 2617,3086.12 c -55.85,26.51 -113.22,45.88 -171.09,58.96 -73.01,-1.03 -145.14,-12.58 -214.1,-34.17 -11.88,-3.09 -23.66,-6.48 -35.37,-10.15 -11.87,-3.09 -23.66,-6.47 -35.36,-10.14 -11.88,-3.09 -23.68,-6.49 -35.39,-10.15 -11.87,-3.09 -23.66,-6.48 -35.36,-10.14 -11.87,-3.09 -23.66,-6.48 -35.37,-10.15 -11.87,-3.09 -23.66,-6.48 -35.36,-10.14 -11.88,-3.09 -23.67,-6.49 -35.38,-10.15 -11.87,-3.09 -23.66,-6.48 -35.36,-10.15 -123.3,-32.09 -237.96,-95.26 -331.46,-185.09 -34.22,-44.76 -64.38,-93.66 -89.51,-146.6 -193.58,-407.91 -19.84,-895.51 388.08,-1089.11 45.01,-21.35 91.04,-37.99 137.5,-50.59 104.63,-11.75 209.44,-1.06 307.81,29.73 11.87,3.1 23.66,6.49 35.37,10.15 11.87,3.1 23.66,6.48 35.36,10.15 11.87,3.08 23.67,6.48 35.37,10.14 11.87,3.09 23.66,6.48 35.36,10.15 11.88,3.09 23.66,6.47 35.37,10.15 11.88,3.08 23.67,6.47 35.37,10.13 11.88,3.1 23.67,6.49 35.37,10.15 11.87,3.1 23.67,6.48 35.37,10.15 54.81,14.26 107.9,34.73 158.2,60.89 82.84,71.85 152.62,161.47 202.65,266.88 193.58,407.91 19.84,895.52 -388.07,1089.1"
         transform="translate(0,2.5e-5)"
         id="path59" />
    </clipPath>
    <clipPath
       clipPathUnits="userSpaceOnUse"
       id="clipPath61">
      <path
         d="m 2617,3086.12 c -55.85,26.51 -113.22,45.88 -171.09,58.96 -73.01,-1.03 -145.14,-12.58 -214.1,-34.17 -11.88,-3.09 -23.66,-6.48 -35.37,-10.15 -11.87,-3.09 -23.66,-6.47 -35.36,-10.14 -11.88,-3.09 -23.68,-6.49 -35.39,-10.15 -11.87,-3.09 -23.66,-6.48 -35.36,-10.14 -11.87,-3.09 -23.66,-6.48 -35.37,-10.15 -11.87,-3.09 -23.66,-6.48 -35.36,-10.14 -11.88,-3.09 -23.67,-6.49 -35.38,-10.15 -11.87,-3.09 -23.66,-6.48 -35.36,-10.15 -123.3,-32.09 -237.96,-95.26 -331.46,-185.09 -34.22,-44.76 -64.38,-93.66 -89.51,-146.6 -193.58,-407.91 -19.84,-895.51 388.08,-1089.11 45.01,-21.35 91.04,-37.99 137.5,-50.59 104.63,-11.75 209.44,-1.06 307.81,29.73 11.87,3.1 23.66,6.49 35.37,10.15 11.87,3.1 23.66,6.48 35.36,10.15 11.87,3.08 23.67,6.48 35.37,10.14 11.87,3.09 23.66,6.48 35.36,10.15 11.88,3.09 23.66,6.47 35.37,10.15 11.88,3.08 23.67,6.47 35.37,10.13 11.88,3.1 23.67,6.49 35.37,10.15 11.87,3.1 23.67,6.48 35.37,10.15 54.81,14.26 107.9,34.73 158.2,60.89 82.84,71.85 152.62,161.47 202.65,266.88 193.58,407.91 19.84,895.52 -388.07,1089.1"
         transform="translate(0,2.5e-5)"
         id="path61" />
    </clipPath>
    <clipPath
       clipPathUnits="userSpaceOnUse"
       id="clipPath63">
      <path
         d="m 2617,3086.12 c -55.85,26.51 -113.22,45.88 -171.09,58.96 -73.01,-1.03 -145.14,-12.58 -214.1,-34.17 -11.88,-3.09 -23.66,-6.48 -35.37,-10.15 -11.87,-3.09 -23.66,-6.47 -35.36,-10.14 -11.88,-3.09 -23.68,-6.49 -35.39,-10.15 -11.87,-3.09 -23.66,-6.48 -35.36,-10.14 -11.87,-3.09 -23.66,-6.48 -35.37,-10.15 -11.87,-3.09 -23.66,-6.48 -35.36,-10.14 -11.88,-3.09 -23.67,-6.49 -35.38,-10.15 -11.87,-3.09 -23.66,-6.48 -35.36,-10.15 -123.3,-32.09 -237.96,-95.26 -331.46,-185.09 -34.22,-44.76 -64.38,-93.66 -89.51,-146.6 -193.58,-407.91 -19.84,-895.51 388.08,-1089.11 45.01,-21.35 91.04,-37.99 137.5,-50.59 104.63,-11.75 209.44,-1.06 307.81,29.73 11.87,3.1 23.66,6.49 35.37,10.15 11.87,3.1 23.66,6.48 35.36,10.15 11.87,3.08 23.67,6.48 35.37,10.14 11.87,3.09 23.66,6.48 35.36,10.15 11.88,3.09 23.66,6.47 35.37,10.15 11.88,3.08 23.67,6.47 35.37,10.13 11.88,3.1 23.67,6.49 35.37,10.15 11.87,3.1 23.67,6.48 35.37,10.15 54.81,14.26 107.9,34.73 158.2,60.89 82.84,71.85 152.62,161.47 202.65,266.88 193.58,407.91 19.84,895.52 -388.07,1089.1"
         transform="translate(0,2.5e-5)"
         id="path63" />
    </clipPath>
    <clipPath
       clipPathUnits="userSpaceOnUse"
       id="clipPath65">
      <path
         d="m 2617,3086.12 c -55.85,26.51 -113.22,45.88 -171.09,58.96 -73.01,-1.03 -145.14,-12.58 -214.1,-34.17 -11.88,-3.09 -23.66,-6.48 -35.37,-10.15 -11.87,-3.09 -23.66,-6.47 -35.36,-10.14 -11.88,-3.09 -23.68,-6.49 -35.39,-10.15 -11.87,-3.09 -23.66,-6.48 -35.36,-10.14 -11.87,-3.09 -23.66,-6.48 -35.37,-10.15 -11.87,-3.09 -23.66,-6.48 -35.36,-10.14 -11.88,-3.09 -23.67,-6.49 -35.38,-10.15 -11.87,-3.09 -23.66,-6.48 -35.36,-10.15 -123.3,-32.09 -237.96,-95.26 -331.46,-185.09 -34.22,-44.76 -64.38,-93.66 -89.51,-146.6 -193.58,-407.91 -19.84,-895.51 388.08,-1089.11 45.01,-21.35 91.04,-37.99 137.5,-50.59 104.63,-11.75 209.44,-1.06 307.81,29.73 11.87,3.1 23.66,6.49 35.37,10.15 11.87,3.1 23.66,6.48 35.36,10.15 11.87,3.08 23.67,6.48 35.37,10.14 11.87,3.09 23.66,6.48 35.36,10.15 11.88,3.09 23.66,6.47 35.37,10.15 11.88,3.08 23.67,6.47 35.37,10.13 11.88,3.1 23.67,6.49 35.37,10.15 11.87,3.1 23.67,6.48 35.37,10.15 54.81,14.26 107.9,34.73 158.2,60.89 82.84,71.85 152.62,161.47 202.65,266.88 193.58,407.91 19.84,895.52 -388.07,1089.1"
         transform="translate(0,2.5e-5)"
         id="path65" />
    </clipPath>
    <clipPath
       clipPathUnits="userSpaceOnUse"
       id="clipPath67">
      <path
         d="m 2617,3086.12 c -55.85,26.51 -113.22,45.88 -171.09,58.96 -73.01,-1.03 -145.14,-12.58 -214.1,-34.17 -11.88,-3.09 -23.66,-6.48 -35.37,-10.15 -11.87,-3.09 -23.66,-6.47 -35.36,-10.14 -11.88,-3.09 -23.68,-6.49 -35.39,-10.15 -11.87,-3.09 -23.66,-6.48 -35.36,-10.14 -11.87,-3.09 -23.66,-6.48 -35.37,-10.15 -11.87,-3.09 -23.66,-6.48 -35.36,-10.14 -11.88,-3.09 -23.67,-6.49 -35.38,-10.15 -11.87,-3.09 -23.66,-6.48 -35.36,-10.15 -123.3,-32.09 -237.96,-95.26 -331.46,-185.09 -34.22,-44.76 -64.38,-93.66 -89.51,-146.6 -193.58,-407.91 -19.84,-895.51 388.08,-1089.11 45.01,-21.35 91.04,-37.99 137.5,-50.59 104.63,-11.75 209.44,-1.06 307.81,29.73 11.87,3.1 23.66,6.49 35.37,10.15 11.87,3.1 23.66,6.48 35.36,10.15 11.87,3.08 23.67,6.48 35.37,10.14 11.87,3.09 23.66,6.48 35.36,10.15 11.88,3.09 23.66,6.47 35.37,10.15 11.88,3.08 23.67,6.47 35.37,10.13 11.88,3.1 23.67,6.49 35.37,10.15 11.87,3.1 23.67,6.48 35.37,10.15 54.81,14.26 107.9,34.73 158.2,60.89 82.84,71.85 152.62,161.47 202.65,266.88 193.58,407.91 19.84,895.52 -388.07,1089.1"
         transform="translate(0,2.5e-5)"
         id="path67" />
    </clipPath>
    <clipPath
       clipPathUnits="userSpaceOnUse"
       id="clipPath69">
      <path
         d="m 2617,3086.12 c -55.85,26.51 -113.22,45.88 -171.09,58.96 -73.01,-1.03 -145.14,-12.58 -214.1,-34.17 -11.88,-3.09 -23.66,-6.48 -35.37,-10.15 -11.87,-3.09 -23.66,-6.47 -35.36,-10.14 -11.88,-3.09 -23.68,-6.49 -35.39,-10.15 -11.87,-3.09 -23.66,-6.48 -35.36,-10.14 -11.87,-3.09 -23.66,-6.48 -35.37,-10.15 -11.87,-3.09 -23.66,-6.48 -35.36,-10.14 -11.88,-3.09 -23.67,-6.49 -35.38,-10.15 -11.87,-3.09 -23.66,-6.48 -35.36,-10.15 -123.3,-32.09 -237.96,-95.26 -331.46,-185.09 -34.22,-44.76 -64.38,-93.66 -89.51,-146.6 -193.58,-407.91 -19.84,-895.51 388.08,-1089.11 45.01,-21.35 91.04,-37.99 137.5,-50.59 104.63,-11.75 209.44,-1.06 307.81,29.73 11.87,3.1 23.66,6.49 35.37,10.15 11.87,3.1 23.66,6.48 35.36,10.15 11.87,3.08 23.67,6.48 35.37,10.14 11.87,3.09 23.66,6.48 35.36,10.15 11.88,3.09 23.66,6.47 35.37,10.15 11.88,3.08 23.67,6.47 35.37,10.13 11.88,3.1 23.67,6.49 35.37,10.15 11.87,3.1 23.67,6.48 35.37,10.15 54.81,14.26 107.9,34.73 158.2,60.89 82.84,71.85 152.62,161.47 202.65,266.88 193.58,407.91 19.84,895.52 -388.07,1089.1"
         transform="translate(0,2.5e-5)"
         id="path69" />
    </clipPath>
    <clipPath
       clipPathUnits="userSpaceOnUse"
       id="clipPath71">
      <path
         d="m 2617,3086.12 c -55.85,26.51 -113.22,45.88 -171.09,58.96 -73.01,-1.03 -145.14,-12.58 -214.1,-34.17 -11.88,-3.09 -23.66,-6.48 -35.37,-10.15 -11.87,-3.09 -23.66,-6.47 -35.36,-10.14 -11.88,-3.09 -23.68,-6.49 -35.39,-10.15 -11.87,-3.09 -23.66,-6.48 -35.36,-10.14 -11.87,-3.09 -23.66,-6.48 -35.37,-10.15 -11.87,-3.09 -23.66,-6.48 -35.36,-10.14 -11.88,-3.09 -23.67,-6.49 -35.38,-10.15 -11.87,-3.09 -23.66,-6.48 -35.36,-10.15 -123.3,-32.09 -237.96,-95.26 -331.46,-185.09 -34.22,-44.76 -64.38,-93.66 -89.51,-146.6 -193.58,-407.91 -19.84,-895.51 388.08,-1089.11 45.01,-21.35 91.04,-37.99 137.5,-50.59 104.63,-11.75 209.44,-1.06 307.81,29.73 11.87,3.1 23.66,6.49 35.37,10.15 11.87,3.1 23.66,6.48 35.36,10.15 11.87,3.08 23.67,6.48 35.37,10.14 11.87,3.09 23.66,6.48 35.36,10.15 11.88,3.09 23.66,6.47 35.37,10.15 11.88,3.08 23.67,6.47 35.37,10.13 11.88,3.1 23.67,6.49 35.37,10.15 11.87,3.1 23.67,6.48 35.37,10.15 54.81,14.26 107.9,34.73 158.2,60.89 82.84,71.85 152.62,161.47 202.65,266.88 193.58,407.91 19.84,895.52 -388.07,1089.1"
         transform="translate(0,2.5e-5)"
         id="path71" />
    </clipPath>
    <clipPath
       clipPathUnits="userSpaceOnUse"
       id="clipPath73">
      <path
         d="m 2617,3086.12 c -55.85,26.51 -113.22,45.88 -171.09,58.96 -73.01,-1.03 -145.14,-12.58 -214.1,-34.17 -11.88,-3.09 -23.66,-6.48 -35.37,-10.15 -11.87,-3.09 -23.66,-6.47 -35.36,-10.14 -11.88,-3.09 -23.68,-6.49 -35.39,-10.15 -11.87,-3.09 -23.66,-6.48 -35.36,-10.14 -11.87,-3.09 -23.66,-6.48 -35.37,-10.15 -11.87,-3.09 -23.66,-6.48 -35.36,-10.14 -11.88,-3.09 -23.67,-6.49 -35.38,-10.15 -11.87,-3.09 -23.66,-6.48 -35.36,-10.15 -123.3,-32.09 -237.96,-95.26 -331.46,-185.09 -34.22,-44.76 -64.38,-93.66 -89.51,-146.6 -193.58,-407.91 -19.84,-895.51 388.08,-1089.11 45.01,-21.35 91.04,-37.99 137.5,-50.59 104.63,-11.75 209.44,-1.06 307.81,29.73 11.87,3.1 23.66,6.49 35.37,10.15 11.87,3.1 23.66,6.48 35.36,10.15 11.87,3.08 23.67,6.48 35.37,10.14 11.87,3.09 23.66,6.48 35.36,10.15 11.88,3.09 23.66,6.47 35.37,10.15 11.88,3.08 23.67,6.47 35.37,10.13 11.88,3.1 23.67,6.49 35.37,10.15 11.87,3.1 23.67,6.48 35.37,10.15 54.81,14.26 107.9,34.73 158.2,60.89 82.84,71.85 152.62,161.47 202.65,266.88 193.58,407.91 19.84,895.52 -388.07,1089.1"
         transform="translate(0,2.5e-5)"
         id="path73" />
    </clipPath>
    <clipPath
       clipPathUnits="userSpaceOnUse"
       id="clipPath75">
      <path
         d="m 2617,3086.12 c -55.85,26.51 -113.22,45.88 -171.09,58.96 -73.01,-1.03 -145.14,-12.58 -214.1,-34.17 -11.88,-3.09 -23.66,-6.48 -35.37,-10.15 -11.87,-3.09 -23.66,-6.47 -35.36,-10.14 -11.88,-3.09 -23.68,-6.49 -35.39,-10.15 -11.87,-3.09 -23.66,-6.48 -35.36,-10.14 -11.87,-3.09 -23.66,-6.48 -35.37,-10.15 -11.87,-3.09 -23.66,-6.48 -35.36,-10.14 -11.88,-3.09 -23.67,-6.49 -35.38,-10.15 -11.87,-3.09 -23.66,-6.48 -35.36,-10.15 -123.3,-32.09 -237.96,-95.26 -331.46,-185.09 -34.22,-44.76 -64.38,-93.66 -89.51,-146.6 -193.58,-407.91 -19.84,-895.51 388.08,-1089.11 45.01,-21.35 91.04,-37.99 137.5,-50.59 104.63,-11.75 209.44,-1.06 307.81,29.73 11.87,3.1 23.66,6.49 35.37,10.15 11.87,3.1 23.66,6.48 35.36,10.15 11.87,3.08 23.67,6.48 35.37,10.14 11.87,3.09 23.66,6.48 35.36,10.15 11.88,3.09 23.66,6.47 35.37,10.15 11.88,3.08 23.67,6.47 35.37,10.13 11.88,3.1 23.67,6.49 35.37,10.15 11.87,3.1 23.67,6.48 35.37,10.15 54.81,14.26 107.9,34.73 158.2,60.89 82.84,71.85 152.62,161.47 202.65,266.88 193.58,407.91 19.84,895.52 -388.07,1089.1"
         transform="translate(0,2.5e-5)"
         id="path75" />
    </clipPath>
    <clipPath
       clipPathUnits="userSpaceOnUse"
       id="clipPath77">
      <path
         d="m 2617,3086.12 c -55.85,26.51 -113.22,45.88 -171.09,58.96 -73.01,-1.03 -145.14,-12.58 -214.1,-34.17 -11.88,-3.09 -23.66,-6.48 -35.37,-10.15 -11.87,-3.09 -23.66,-6.47 -35.36,-10.14 -11.88,-3.09 -23.68,-6.49 -35.39,-10.15 -11.87,-3.09 -23.66,-6.48 -35.36,-10.14 -11.87,-3.09 -23.66,-6.48 -35.37,-10.15 -11.87,-3.09 -23.66,-6.48 -35.36,-10.14 -11.88,-3.09 -23.67,-6.49 -35.38,-10.15 -11.87,-3.09 -23.66,-6.48 -35.36,-10.15 -123.3,-32.09 -237.96,-95.26 -331.46,-185.09 -34.22,-44.76 -64.38,-93.66 -89.51,-146.6 -193.58,-407.91 -19.84,-895.51 388.08,-1089.11 45.01,-21.35 91.04,-37.99 137.5,-50.59 104.63,-11.75 209.44,-1.06 307.81,29.73 11.87,3.1 23.66,6.49 35.37,10.15 11.87,3.1 23.66,6.48 35.36,10.15 11.87,3.08 23.67,6.48 35.37,10.14 11.87,3.09 23.66,6.48 35.36,10.15 11.88,3.09 23.66,6.47 35.37,10.15 11.88,3.08 23.67,6.47 35.37,10.13 11.88,3.1 23.67,6.49 35.37,10.15 11.87,3.1 23.67,6.48 35.37,10.15 54.81,14.26 107.9,34.73 158.2,60.89 82.84,71.85 152.62,161.47 202.65,266.88 193.58,407.91 19.84,895.52 -388.07,1089.1"
         transform="translate(0,2.5e-5)"
         id="path77" />
    </clipPath>
    <clipPath
       clipPathUnits="userSpaceOnUse"
       id="clipPath79">
      <path
         d="m 2617,3086.12 c -55.85,26.51 -113.22,45.88 -171.09,58.96 -73.01,-1.03 -145.14,-12.58 -214.1,-34.17 -11.88,-3.09 -23.66,-6.48 -35.37,-10.15 -11.87,-3.09 -23.66,-6.47 -35.36,-10.14 -11.88,-3.09 -23.68,-6.49 -35.39,-10.15 -11.87,-3.09 -23.66,-6.48 -35.36,-10.14 -11.87,-3.09 -23.66,-6.48 -35.37,-10.15 -11.87,-3.09 -23.66,-6.48 -35.36,-10.14 -11.88,-3.09 -23.67,-6.49 -35.38,-10.15 -11.87,-3.09 -23.66,-6.48 -35.36,-10.15 -123.3,-32.09 -237.96,-95.26 -331.46,-185.09 -34.22,-44.76 -64.38,-93.66 -89.51,-146.6 -193.58,-407.91 -19.84,-895.51 388.08,-1089.11 45.01,-21.35 91.04,-37.99 137.5,-50.59 104.63,-11.75 209.44,-1.06 307.81,29.73 11.87,3.1 23.66,6.49 35.37,10.15 11.87,3.1 23.66,6.48 35.36,10.15 11.87,3.08 23.67,6.48 35.37,10.14 11.87,3.09 23.66,6.48 35.36,10.15 11.88,3.09 23.66,6.47 35.37,10.15 11.88,3.08 23.67,6.47 35.37,10.13 11.88,3.1 23.67,6.49 35.37,10.15 11.87,3.1 23.67,6.48 35.37,10.15 54.81,14.26 107.9,34.73 158.2,60.89 82.84,71.85 152.62,161.47 202.65,266.88 193.58,407.91 19.84,895.52 -388.07,1089.1"
         transform="translate(0,2.5e-5)"
         id="path79" />
    </clipPath>
    <clipPath
       clipPathUnits="userSpaceOnUse"
       id="clipPath81">
      <path
         d="m 2617,3086.12 c -55.85,26.51 -113.22,45.88 -171.09,58.96 -73.01,-1.03 -145.14,-12.58 -214.1,-34.17 -11.88,-3.09 -23.66,-6.48 -35.37,-10.15 -11.87,-3.09 -23.66,-6.47 -35.36,-10.14 -11.88,-3.09 -23.68,-6.49 -35.39,-10.15 -11.87,-3.09 -23.66,-6.48 -35.36,-10.14 -11.87,-3.09 -23.66,-6.48 -35.37,-10.15 -11.87,-3.09 -23.66,-6.48 -35.36,-10.14 -11.88,-3.09 -23.67,-6.49 -35.38,-10.15 -11.87,-3.09 -23.66,-6.48 -35.36,-10.15 -123.3,-32.09 -237.96,-95.26 -331.46,-185.09 -34.22,-44.76 -64.38,-93.66 -89.51,-146.6 -193.58,-407.91 -19.84,-895.51 388.08,-1089.11 45.01,-21.35 91.04,-37.99 137.5,-50.59 104.63,-11.75 209.44,-1.06 307.81,29.73 11.87,3.1 23.66,6.49 35.37,10.15 11.87,3.1 23.66,6.48 35.36,10.15 11.87,3.08 23.67,6.48 35.37,10.14 11.87,3.09 23.66,6.48 35.36,10.15 11.88,3.09 23.66,6.47 35.37,10.15 11.88,3.08 23.67,6.47 35.37,10.13 11.88,3.1 23.67,6.49 35.37,10.15 11.87,3.1 23.67,6.48 35.37,10.15 54.81,14.26 107.9,34.73 158.2,60.89 82.84,71.85 152.62,161.47 202.65,266.88 193.58,407.91 19.84,895.52 -388.07,1089.1"
         transform="translate(0,2.5e-5)"
         id="path81" />
    </clipPath>
    <clipPath
       clipPathUnits="userSpaceOnUse"
       id="clipPath83">
      <path
         d="m 2617,3086.12 c -55.85,26.51 -113.22,45.88 -171.09,58.96 -73.01,-1.03 -145.14,-12.58 -214.1,-34.17 -11.88,-3.09 -23.66,-6.48 -35.37,-10.15 -11.87,-3.09 -23.66,-6.47 -35.36,-10.14 -11.88,-3.09 -23.68,-6.49 -35.39,-10.15 -11.87,-3.09 -23.66,-6.48 -35.36,-10.14 -11.87,-3.09 -23.66,-6.48 -35.37,-10.15 -11.87,-3.09 -23.66,-6.48 -35.36,-10.14 -11.88,-3.09 -23.67,-6.49 -35.38,-10.15 -11.87,-3.09 -23.66,-6.48 -35.36,-10.15 -123.3,-32.09 -237.96,-95.26 -331.46,-185.09 -34.22,-44.76 -64.38,-93.66 -89.51,-146.6 -193.58,-407.91 -19.84,-895.51 388.08,-1089.11 45.01,-21.35 91.04,-37.99 137.5,-50.59 104.63,-11.75 209.44,-1.06 307.81,29.73 11.87,3.1 23.66,6.49 35.37,10.15 11.87,3.1 23.66,6.48 35.36,10.15 11.87,3.08 23.67,6.48 35.37,10.14 11.87,3.09 23.66,6.48 35.36,10.15 11.88,3.09 23.66,6.47 35.37,10.15 11.88,3.08 23.67,6.47 35.37,10.13 11.88,3.1 23.67,6.49 35.37,10.15 11.87,3.1 23.67,6.48 35.37,10.15 54.81,14.26 107.9,34.73 158.2,60.89 82.84,71.85 152.62,161.47 202.65,266.88 193.58,407.91 19.84,895.52 -388.07,1089.1"
         transform="translate(0,2.5e-5)"
         id="path83" />
    </clipPath>
    <clipPath
       clipPathUnits="userSpaceOnUse"
       id="clipPath85">
      <path
         d="m 2617,3086.12 c -55.85,26.51 -113.22,45.88 -171.09,58.96 -73.01,-1.03 -145.14,-12.58 -214.1,-34.17 -11.88,-3.09 -23.66,-6.48 -35.37,-10.15 -11.87,-3.09 -23.66,-6.47 -35.36,-10.14 -11.88,-3.09 -23.68,-6.49 -35.39,-10.15 -11.87,-3.09 -23.66,-6.48 -35.36,-10.14 -11.87,-3.09 -23.66,-6.48 -35.37,-10.15 -11.87,-3.09 -23.66,-6.48 -35.36,-10.14 -11.88,-3.09 -23.67,-6.49 -35.38,-10.15 -11.87,-3.09 -23.66,-6.48 -35.36,-10.15 -123.3,-32.09 -237.96,-95.26 -331.46,-185.09 -34.22,-44.76 -64.38,-93.66 -89.51,-146.6 -193.58,-407.91 -19.84,-895.51 388.08,-1089.11 45.01,-21.35 91.04,-37.99 137.5,-50.59 104.63,-11.75 209.44,-1.06 307.81,29.73 11.87,3.1 23.66,6.49 35.37,10.15 11.87,3.1 23.66,6.48 35.36,10.15 11.87,3.08 23.67,6.48 35.37,10.14 11.87,3.09 23.66,6.48 35.36,10.15 11.88,3.09 23.66,6.47 35.37,10.15 11.88,3.08 23.67,6.47 35.37,10.13 11.88,3.1 23.67,6.49 35.37,10.15 11.87,3.1 23.67,6.48 35.37,10.15 54.81,14.26 107.9,34.73 158.2,60.89 82.84,71.85 152.62,161.47 202.65,266.88 193.58,407.91 19.84,895.52 -388.07,1089.1"
         transform="translate(0,2.5e-5)"
         id="path85" />
    </clipPath>
    <clipPath
       clipPathUnits="userSpaceOnUse"
       id="clipPath87">
      <path
         d="m 2617,3086.12 c -55.85,26.51 -113.22,45.88 -171.09,58.96 -73.01,-1.03 -145.14,-12.58 -214.1,-34.17 -11.88,-3.09 -23.66,-6.48 -35.37,-10.15 -11.87,-3.09 -23.66,-6.47 -35.36,-10.14 -11.88,-3.09 -23.68,-6.49 -35.39,-10.15 -11.87,-3.09 -23.66,-6.48 -35.36,-10.14 -11.87,-3.09 -23.66,-6.48 -35.37,-10.15 -11.87,-3.09 -23.66,-6.48 -35.36,-10.14 -11.88,-3.09 -23.67,-6.49 -35.38,-10.15 -11.87,-3.09 -23.66,-6.48 -35.36,-10.15 -123.3,-32.09 -237.96,-95.26 -331.46,-185.09 -34.22,-44.76 -64.38,-93.66 -89.51,-146.6 -193.58,-407.91 -19.84,-895.51 388.08,-1089.11 45.01,-21.35 91.04,-37.99 137.5,-50.59 104.63,-11.75 209.44,-1.06 307.81,29.73 11.87,3.1 23.66,6.49 35.37,10.15 11.87,3.1 23.66,6.48 35.36,10.15 11.87,3.08 23.67,6.48 35.37,10.14 11.87,3.09 23.66,6.48 35.36,10.15 11.88,3.09 23.66,6.47 35.37,10.15 11.88,3.08 23.67,6.47 35.37,10.13 11.88,3.1 23.67,6.49 35.37,10.15 11.87,3.1 23.67,6.48 35.37,10.15 54.81,14.26 107.9,34.73 158.2,60.89 82.84,71.85 152.62,161.47 202.65,266.88 193.58,407.91 19.84,895.52 -388.07,1089.1"
         transform="translate(0,2.5e-5)"
         id="path87" />
    </clipPath>
    <clipPath
       clipPathUnits="userSpaceOnUse"
       id="clipPath89">
      <path
         d="m 2617,3086.12 c -55.85,26.51 -113.22,45.88 -171.09,58.96 -73.01,-1.03 -145.14,-12.58 -214.1,-34.17 -11.88,-3.09 -23.66,-6.48 -35.37,-10.15 -11.87,-3.09 -23.66,-6.47 -35.36,-10.14 -11.88,-3.09 -23.68,-6.49 -35.39,-10.15 -11.87,-3.09 -23.66,-6.48 -35.36,-10.14 -11.87,-3.09 -23.66,-6.48 -35.37,-10.15 -11.87,-3.09 -23.66,-6.48 -35.36,-10.14 -11.88,-3.09 -23.67,-6.49 -35.38,-10.15 -11.87,-3.09 -23.66,-6.48 -35.36,-10.15 -123.3,-32.09 -237.96,-95.26 -331.46,-185.09 -34.22,-44.76 -64.38,-93.66 -89.51,-146.6 -193.58,-407.91 -19.84,-895.51 388.08,-1089.11 45.01,-21.35 91.04,-37.99 137.5,-50.59 104.63,-11.75 209.44,-1.06 307.81,29.73 11.87,3.1 23.66,6.49 35.37,10.15 11.87,3.1 23.66,6.48 35.36,10.15 11.87,3.08 23.67,6.48 35.37,10.14 11.87,3.09 23.66,6.48 35.36,10.15 11.88,3.09 23.66,6.47 35.37,10.15 11.88,3.08 23.67,6.47 35.37,10.13 11.88,3.1 23.67,6.49 35.37,10.15 11.87,3.1 23.67,6.48 35.37,10.15 54.81,14.26 107.9,34.73 158.2,60.89 82.84,71.85 152.62,161.47 202.65,266.88 193.58,407.91 19.84,895.52 -388.07,1089.1"
         transform="translate(0,2.5e-5)"
         id="path89" />
    </clipPath>
    <clipPath
       clipPathUnits="userSpaceOnUse"
       id="clipPath91">
      <path
         d="m 2617,3086.12 c -55.85,26.51 -113.22,45.88 -171.09,58.96 -73.01,-1.03 -145.14,-12.58 -214.1,-34.17 -11.88,-3.09 -23.66,-6.48 -35.37,-10.15 -11.87,-3.09 -23.66,-6.47 -35.36,-10.14 -11.88,-3.09 -23.68,-6.49 -35.39,-10.15 -11.87,-3.09 -23.66,-6.48 -35.36,-10.14 -11.87,-3.09 -23.66,-6.48 -35.37,-10.15 -11.87,-3.09 -23.66,-6.48 -35.36,-10.14 -11.88,-3.09 -23.67,-6.49 -35.38,-10.15 -11.87,-3.09 -23.66,-6.48 -35.36,-10.15 -123.3,-32.09 -237.96,-95.26 -331.46,-185.09 -34.22,-44.76 -64.38,-93.66 -89.51,-146.6 -193.58,-407.91 -19.84,-895.51 388.08,-1089.11 45.01,-21.35 91.04,-37.99 137.5,-50.59 104.63,-11.75 209.44,-1.06 307.81,29.73 11.87,3.1 23.66,6.49 35.37,10.15 11.87,3.1 23.66,6.48 35.36,10.15 11.87,3.08 23.67,6.48 35.37,10.14 11.87,3.09 23.66,6.48 35.36,10.15 11.88,3.09 23.66,6.47 35.37,10.15 11.88,3.08 23.67,6.47 35.37,10.13 11.88,3.1 23.67,6.49 35.37,10.15 11.87,3.1 23.67,6.48 35.37,10.15 54.81,14.26 107.9,34.73 158.2,60.89 82.84,71.85 152.62,161.47 202.65,266.88 193.58,407.91 19.84,895.52 -388.07,1089.1"
         transform="translate(0,2.5e-5)"
         id="path91" />
    </clipPath>
    <clipPath
       clipPathUnits="userSpaceOnUse"
       id="clipPath93">
      <path
         d="m 2617,3086.12 c -55.85,26.51 -113.22,45.88 -171.09,58.96 -73.01,-1.03 -145.14,-12.58 -214.1,-34.17 -11.88,-3.09 -23.66,-6.48 -35.37,-10.15 -11.87,-3.09 -23.66,-6.47 -35.36,-10.14 -11.88,-3.09 -23.68,-6.49 -35.39,-10.15 -11.87,-3.09 -23.66,-6.48 -35.36,-10.14 -11.87,-3.09 -23.66,-6.48 -35.37,-10.15 -11.87,-3.09 -23.66,-6.48 -35.36,-10.14 -11.88,-3.09 -23.67,-6.49 -35.38,-10.15 -11.87,-3.09 -23.66,-6.48 -35.36,-10.15 -123.3,-32.09 -237.96,-95.26 -331.46,-185.09 -34.22,-44.76 -64.38,-93.66 -89.51,-146.6 -193.58,-407.91 -19.84,-895.51 388.08,-1089.11 45.01,-21.35 91.04,-37.99 137.5,-50.59 104.63,-11.75 209.44,-1.06 307.81,29.73 11.87,3.1 23.66,6.49 35.37,10.15 11.87,3.1 23.66,6.48 35.36,10.15 11.87,3.08 23.67,6.48 35.37,10.14 11.87,3.09 23.66,6.48 35.36,10.15 11.88,3.09 23.66,6.47 35.37,10.15 11.88,3.08 23.67,6.47 35.37,10.13 11.88,3.1 23.67,6.49 35.37,10.15 11.87,3.1 23.67,6.48 35.37,10.15 54.81,14.26 107.9,34.73 158.2,60.89 82.84,71.85 152.62,161.47 202.65,266.88 193.58,407.91 19.84,895.52 -388.07,1089.1"
         transform="translate(0,2.5e-5)"
         id="path93" />
    </clipPath>
    <clipPath
       clipPathUnits="userSpaceOnUse"
       id="clipPath95">
      <path
         d="m 2617,3086.12 c -55.85,26.51 -113.22,45.88 -171.09,58.96 -73.01,-1.03 -145.14,-12.58 -214.1,-34.17 -11.88,-3.09 -23.66,-6.48 -35.37,-10.15 -11.87,-3.09 -23.66,-6.47 -35.36,-10.14 -11.88,-3.09 -23.68,-6.49 -35.39,-10.15 -11.87,-3.09 -23.66,-6.48 -35.36,-10.14 -11.87,-3.09 -23.66,-6.48 -35.37,-10.15 -11.87,-3.09 -23.66,-6.48 -35.36,-10.14 -11.88,-3.09 -23.67,-6.49 -35.38,-10.15 -11.87,-3.09 -23.66,-6.48 -35.36,-10.15 -123.3,-32.09 -237.96,-95.26 -331.46,-185.09 -34.22,-44.76 -64.38,-93.66 -89.51,-146.6 -193.58,-407.91 -19.84,-895.51 388.08,-1089.11 45.01,-21.35 91.04,-37.99 137.5,-50.59 104.63,-11.75 209.44,-1.06 307.81,29.73 11.87,3.1 23.66,6.49 35.37,10.15 11.87,3.1 23.66,6.48 35.36,10.15 11.87,3.08 23.67,6.48 35.37,10.14 11.87,3.09 23.66,6.48 35.36,10.15 11.88,3.09 23.66,6.47 35.37,10.15 11.88,3.08 23.67,6.47 35.37,10.13 11.88,3.1 23.67,6.49 35.37,10.15 11.87,3.1 23.67,6.48 35.37,10.15 54.81,14.26 107.9,34.73 158.2,60.89 82.84,71.85 152.62,161.47 202.65,266.88 193.58,407.91 19.84,895.52 -388.07,1089.1"
         transform="translate(0,2.5e-5)"
         id="path95" />
    </clipPath>
    <clipPath
       clipPathUnits="userSpaceOnUse"
       id="clipPath97">
      <path
         d="m 2617,3086.12 c -55.85,26.51 -113.22,45.88 -171.09,58.96 -73.01,-1.03 -145.14,-12.58 -214.1,-34.17 -11.88,-3.09 -23.66,-6.48 -35.37,-10.15 -11.87,-3.09 -23.66,-6.47 -35.36,-10.14 -11.88,-3.09 -23.68,-6.49 -35.39,-10.15 -11.87,-3.09 -23.66,-6.48 -35.36,-10.14 -11.87,-3.09 -23.66,-6.48 -35.37,-10.15 -11.87,-3.09 -23.66,-6.48 -35.36,-10.14 -11.88,-3.09 -23.67,-6.49 -35.38,-10.15 -11.87,-3.09 -23.66,-6.48 -35.36,-10.15 -123.3,-32.09 -237.96,-95.26 -331.46,-185.09 -34.22,-44.76 -64.38,-93.66 -89.51,-146.6 -193.58,-407.91 -19.84,-895.51 388.08,-1089.11 45.01,-21.35 91.04,-37.99 137.5,-50.59 104.63,-11.75 209.44,-1.06 307.81,29.73 11.87,3.1 23.66,6.49 35.37,10.15 11.87,3.1 23.66,6.48 35.36,10.15 11.87,3.08 23.67,6.48 35.37,10.14 11.87,3.09 23.66,6.48 35.36,10.15 11.88,3.09 23.66,6.47 35.37,10.15 11.88,3.08 23.67,6.47 35.37,10.13 11.88,3.1 23.67,6.49 35.37,10.15 11.87,3.1 23.67,6.48 35.37,10.15 54.81,14.26 107.9,34.73 158.2,60.89 82.84,71.85 152.62,161.47 202.65,266.88 193.58,407.91 19.84,895.52 -388.07,1089.1"
         transform="translate(0,2.5e-5)"
         id="path97" />
    </clipPath>
    <clipPath
       clipPathUnits="userSpaceOnUse"
       id="clipPath99">
      <path
         d="m 2617,3086.12 c -55.85,26.51 -113.22,45.88 -171.09,58.96 -73.01,-1.03 -145.14,-12.58 -214.1,-34.17 -11.88,-3.09 -23.66,-6.48 -35.37,-10.15 -11.87,-3.09 -23.66,-6.47 -35.36,-10.14 -11.88,-3.09 -23.68,-6.49 -35.39,-10.15 -11.87,-3.09 -23.66,-6.48 -35.36,-10.14 -11.87,-3.09 -23.66,-6.48 -35.37,-10.15 -11.87,-3.09 -23.66,-6.48 -35.36,-10.14 -11.88,-3.09 -23.67,-6.49 -35.38,-10.15 -11.87,-3.09 -23.66,-6.48 -35.36,-10.15 -123.3,-32.09 -237.96,-95.26 -331.46,-185.09 -34.22,-44.76 -64.38,-93.66 -89.51,-146.6 -193.58,-407.91 -19.84,-895.51 388.08,-1089.11 45.01,-21.35 91.04,-37.99 137.5,-50.59 104.63,-11.75 209.44,-1.06 307.81,29.73 11.87,3.1 23.66,6.49 35.37,10.15 11.87,3.1 23.66,6.48 35.36,10.15 11.87,3.08 23.67,6.48 35.37,10.14 11.87,3.09 23.66,6.48 35.36,10.15 11.88,3.09 23.66,6.47 35.37,10.15 11.88,3.08 23.67,6.47 35.37,10.13 11.88,3.1 23.67,6.49 35.37,10.15 11.87,3.1 23.67,6.48 35.37,10.15 54.81,14.26 107.9,34.73 158.2,60.89 82.84,71.85 152.62,161.47 202.65,266.88 193.58,407.91 19.84,895.52 -388.07,1089.1"
         transform="translate(0,2.5e-5)"
         id="path99" />
    </clipPath>
    <clipPath
       clipPathUnits="userSpaceOnUse"
       id="clipPath101">
      <path
         d="m 2617,3086.12 c -55.85,26.51 -113.22,45.88 -171.09,58.96 -73.01,-1.03 -145.14,-12.58 -214.1,-34.17 -11.88,-3.09 -23.66,-6.48 -35.37,-10.15 -11.87,-3.09 -23.66,-6.47 -35.36,-10.14 -11.88,-3.09 -23.68,-6.49 -35.39,-10.15 -11.87,-3.09 -23.66,-6.48 -35.36,-10.14 -11.87,-3.09 -23.66,-6.48 -35.37,-10.15 -11.87,-3.09 -23.66,-6.48 -35.36,-10.14 -11.88,-3.09 -23.67,-6.49 -35.38,-10.15 -11.87,-3.09 -23.66,-6.48 -35.36,-10.15 -123.3,-32.09 -237.96,-95.26 -331.46,-185.09 -34.22,-44.76 -64.38,-93.66 -89.51,-146.6 -193.58,-407.91 -19.84,-895.51 388.08,-1089.11 45.01,-21.35 91.04,-37.99 137.5,-50.59 104.63,-11.75 209.44,-1.06 307.81,29.73 11.87,3.1 23.66,6.49 35.37,10.15 11.87,3.1 23.66,6.48 35.36,10.15 11.87,3.08 23.67,6.48 35.37,10.14 11.87,3.09 23.66,6.48 35.36,10.15 11.88,3.09 23.66,6.47 35.37,10.15 11.88,3.08 23.67,6.47 35.37,10.13 11.88,3.1 23.67,6.49 35.37,10.15 11.87,3.1 23.67,6.48 35.37,10.15 54.81,14.26 107.9,34.73 158.2,60.89 82.84,71.85 152.62,161.47 202.65,266.88 193.58,407.91 19.84,895.52 -388.07,1089.1"
         transform="translate(0,2.5e-5)"
         id="path101" />
    </clipPath>
    <clipPath
       clipPathUnits="userSpaceOnUse"
       id="clipPath118">
      <path
         d="m 2127.96,3646.15 c -1.74,0.82 -3.48,1.54 -5.22,2.29 -1.69,0.88 -3.35,1.77 -5.09,2.6 -1.73,0.82 -3.48,1.55 -5.22,2.3 -1.68,0.87 -3.35,1.77 -5.08,2.59 -1.74,0.83 -3.48,1.55 -5.23,2.3 -1.68,0.87 -3.34,1.77 -5.08,2.59 -1.73,0.83 -3.48,1.55 -5.23,2.3 -1.68,0.88 -3.34,1.77 -5.08,2.59 -1.73,0.83 -3.47,1.55 -5.22,2.3 -1.68,0.88 -3.35,1.77 -5.09,2.59 -1.73,0.83 -3.47,1.55 -5.22,2.3 -1.68,0.88 -3.35,1.77 -5.08,2.6 -44.13,20.94 -90.73,18.39 -114.71,-3.7 l 10.31,-4.89 10.31,-4.89 10.31,-4.89 10.3,-4.89 10.31,-4.89 10.31,-4.9 122.53,-58.15 10.31,-4.89 10.3,-4.89 10.31,-4.89 10.31,-4.9 10.31,-4.88 10.31,-4.9 c 1.95,32.55 -25.55,70.25 -69.68,91.2"
         transform="translate(0,2.5e-5)"
         id="path118" />
    </clipPath>
    <clipPath
       clipPathUnits="userSpaceOnUse"
       id="clipPath120">
      <path
         d="m 2127.96,3646.15 c -1.74,0.82 -3.48,1.54 -5.22,2.29 -1.69,0.88 -3.35,1.77 -5.09,2.6 -1.73,0.82 -3.48,1.55 -5.22,2.3 -1.68,0.87 -3.35,1.77 -5.08,2.59 -1.74,0.83 -3.48,1.55 -5.23,2.3 -1.68,0.87 -3.34,1.77 -5.08,2.59 -1.73,0.83 -3.48,1.55 -5.23,2.3 -1.68,0.88 -3.34,1.77 -5.08,2.59 -1.73,0.83 -3.47,1.55 -5.22,2.3 -1.68,0.88 -3.35,1.77 -5.09,2.59 -1.73,0.83 -3.47,1.55 -5.22,2.3 -1.68,0.88 -3.35,1.77 -5.08,2.6 -44.13,20.94 -90.73,18.39 -114.71,-3.7 l 10.31,-4.89 10.31,-4.89 10.31,-4.89 10.3,-4.89 10.31,-4.89 10.31,-4.9 122.53,-58.15 10.31,-4.89 10.3,-4.89 10.31,-4.89 10.31,-4.9 10.31,-4.88 10.31,-4.9 c 1.95,32.55 -25.55,70.25 -69.68,91.2"
         transform="translate(0,2.5e-5)"
         id="path120" />
    </clipPath>
    <clipPath
       clipPathUnits="userSpaceOnUse"
       id="clipPath122">
      <path
         d="m 2127.96,3646.15 c -1.74,0.82 -3.48,1.54 -5.22,2.29 -1.69,0.88 -3.35,1.77 -5.09,2.6 -1.73,0.82 -3.48,1.55 -5.22,2.3 -1.68,0.87 -3.35,1.77 -5.08,2.59 -1.74,0.83 -3.48,1.55 -5.23,2.3 -1.68,0.87 -3.34,1.77 -5.08,2.59 -1.73,0.83 -3.48,1.55 -5.23,2.3 -1.68,0.88 -3.34,1.77 -5.08,2.59 -1.73,0.83 -3.47,1.55 -5.22,2.3 -1.68,0.88 -3.35,1.77 -5.09,2.59 -1.73,0.83 -3.47,1.55 -5.22,2.3 -1.68,0.88 -3.35,1.77 -5.08,2.6 -44.13,20.94 -90.73,18.39 -114.71,-3.7 l 10.31,-4.89 10.31,-4.89 10.31,-4.89 10.3,-4.89 10.31,-4.89 10.31,-4.9 122.53,-58.15 10.31,-4.89 10.3,-4.89 10.31,-4.89 10.31,-4.9 10.31,-4.88 10.31,-4.9 c 1.95,32.55 -25.55,70.25 -69.68,91.2"
         transform="translate(0,2.5e-5)"
         id="path122" />
    </clipPath>
    <clipPath
       clipPathUnits="userSpaceOnUse"
       id="clipPath124">
      <path
         d="m 2127.96,3646.15 c -1.74,0.82 -3.48,1.54 -5.22,2.29 -1.69,0.88 -3.35,1.77 -5.09,2.6 -1.73,0.82 -3.48,1.55 -5.22,2.3 -1.68,0.87 -3.35,1.77 -5.08,2.59 -1.74,0.83 -3.48,1.55 -5.23,2.3 -1.68,0.87 -3.34,1.77 -5.08,2.59 -1.73,0.83 -3.48,1.55 -5.23,2.3 -1.68,0.88 -3.34,1.77 -5.08,2.59 -1.73,0.83 -3.47,1.55 -5.22,2.3 -1.68,0.88 -3.35,1.77 -5.09,2.59 -1.73,0.83 -3.47,1.55 -5.22,2.3 -1.68,0.88 -3.35,1.77 -5.08,2.6 -44.13,20.94 -90.73,18.39 -114.71,-3.7 l 10.31,-4.89 10.31,-4.89 10.31,-4.89 10.3,-4.89 10.31,-4.89 10.31,-4.9 122.53,-58.15 10.31,-4.89 10.3,-4.89 10.31,-4.89 10.31,-4.9 10.31,-4.88 10.31,-4.9 c 1.95,32.55 -25.55,70.25 -69.68,91.2"
         transform="translate(0,2.5e-5)"
         id="path124" />
    </clipPath>
    <clipPath
       clipPathUnits="userSpaceOnUse"
       id="clipPath126">
      <path
         d="m 2127.96,3646.15 c -1.74,0.82 -3.48,1.54 -5.22,2.29 -1.69,0.88 -3.35,1.77 -5.09,2.6 -1.73,0.82 -3.48,1.55 -5.22,2.3 -1.68,0.87 -3.35,1.77 -5.08,2.59 -1.74,0.83 -3.48,1.55 -5.23,2.3 -1.68,0.87 -3.34,1.77 -5.08,2.59 -1.73,0.83 -3.48,1.55 -5.23,2.3 -1.68,0.88 -3.34,1.77 -5.08,2.59 -1.73,0.83 -3.47,1.55 -5.22,2.3 -1.68,0.88 -3.35,1.77 -5.09,2.59 -1.73,0.83 -3.47,1.55 -5.22,2.3 -1.68,0.88 -3.35,1.77 -5.08,2.6 -44.13,20.94 -90.73,18.39 -114.71,-3.7 l 10.31,-4.89 10.31,-4.89 10.31,-4.89 10.3,-4.89 10.31,-4.89 10.31,-4.9 122.53,-58.15 10.31,-4.89 10.3,-4.89 10.31,-4.89 10.31,-4.9 10.31,-4.88 10.31,-4.9 c 1.95,32.55 -25.55,70.25 -69.68,91.2"
         transform="translate(0,2.5e-5)"
         id="path126" />
    </clipPath>
  </defs>
  <g
     inkscape:label="Layer 1"
     inkscape:groupmode="layer"
     id="layer1">
    <g
       transform="matrix(5.6088078,0,0,5.6088078,55.563546,-5771.3418)"
       id="g11">
      <path
         d="m 5,1032.4 c -1.1046,0 -2,0.9 -2,2 v 14 c 0,1.1 0.8954,2 2,2 h 6 2 6 c 1.105,0 2,-0.9 2,-2 v -14 c 0,-1.1 -0.895,-2 -2,-2 h -6 -2 z"
         fill="#bdc3c7"
         id="path1" />
      <path
         d="M 5,3 C 3.8954,3 3,3.8954 3,5 v 14 c 0,1.105 0.8954,2 2,2 h 6 2 6 c 1.105,0 2,-0.895 2,-2 V 5 C 21,3.8954 20.105,3 19,3 h -6 -2 z"
         fill="#ecf0f1"
         transform="translate(0,1028.4)"
         id="path2"
         style="fill:#7e8cb1;fill-opacity:1" />
      <path
         d="M 5,3 C 3.8954,3 3,3.8954 3,5 V 8 9 H 21 V 8 5 C 21,3.8954 20.105,3 19,3 h -6 -2 z"
         fill="#e74c3c"
         transform="translate(0,1028.4)"
         id="path3"
         style="fill:#141a28;fill-opacity:1" />
      <path
         d="m 7,5.5 a 1.5,1.5 0 1 1 -3,0 1.5,1.5 0 1 1 3,0 z"
         fill="#c0392b"
         transform="translate(0.5,1028.4)"
         id="path4-3"
         style="fill:#7e8cb1;fill-opacity:1" />
      <path
         d="M 6,1 C 5.4477,1 5,1.4477 5,2 V 5 C 5,5.5523 5.4477,6 6,6 6.5523,6 7,5.5523 7,5 V 2 C 7,1.4477 6.5523,1 6,1 Z"
         fill="#bdc3c7"
         transform="translate(0,1028.4)"
         id="path5-6" />
      <path
         d="m 7,5.5 a 1.5,1.5 0 1 1 -3,0 1.5,1.5 0 1 1 3,0 z"
         fill="#c0392b"
         transform="translate(12.5,1028.4)"
         id="path6-7"
         style="fill:#7e8cb1;fill-opacity:1" />
      <g
         fill="#bdc3c7"
         id="g10">
        <path
           d="m 18,1029.4 c -0.552,0 -1,0.4 -1,1 v 3 c 0,0.5 0.448,1 1,1 0.552,0 1,-0.5 1,-1 v -3 c 0,-0.6 -0.448,-1 -1,-1 z"
           id="path7-5" />
        <path
           d="m 5,1039.4 v 2 h 2 v -2 z m 3,0 v 2 h 2 v -2 z m 3,0 v 2 h 2 v -2 z m 3,0 v 2 h 2 v -2 z m 3,0 v 2 h 2 v -2 z"
           id="path8-3" />
        <path
           d="m 5,1042.4 v 2 h 2 v -2 z m 3,0 v 2 h 2 v -2 z m 3,0 v 2 h 2 v -2 z m 3,0 v 2 h 2 v -2 z m 3,0 v 2 h 2 v -2 z"
           id="path9-5" />
        <path
           d="m 5,1045.4 v 2 h 2 v -2 z m 3,0 v 2 h 2 v -2 z m 3,0 v 2 h 2 v -2 z m 3,0 v 2 h 2 v -2 z m 3,0 v 2 h 2 v -2 z"
           id="path10-6" />
      </g>
    </g>
    <path
       id="path48"
       d="m 145.86853,124.84972 c 1.45928,-3.07536 4.42559,-10.46073 -0.5588,-16.59486 -4.98489,-6.13362 -10.84263,-8.914001 -11.64966,-12.885831 -0.80703,-3.97183 2.51405,-11.72705 0.11105,-15.738581 -2.40249,-4.011022 -4.19997,-5.470308 -4.19997,-5.470308 0,0 1.30954,-3.752233 -0.8613,-4.849714 -2.17084,-1.097479 -6.33814,-0.114573 -6.33814,-0.114573 l -9.28235,-4.404992 c 0,0 2.01456,-2.543196 -0.45426,-3.580376 -2.46832,-1.036677 -7.9115,0.0809 -7.9115,0.0809 l -1.44924,0.927129 c 0,0 -4.640167,-2.134655 -7.670799,-1.419587 -3.03113,0.715068 -13.157692,9.00898 -13.157692,9.00898 0,0 -14.160196,-7.976325 -20.504875,-9.731086 -6.345179,-1.755258 -11.05419,-5.066793 -19.43001,-3.299469 -8.375314,1.767826 -13.447138,3.379874 -14.48331,5.185388 -1.036172,1.805517 -24.2440446,51.08556 -25.5648866,53.86845 -1.320846,2.7829 0.287987,6.95573 3.078117,8.63863 2.790432,1.68341 8.2094886,4.25475 11.9948886,4.97484 3.7854,0.71959 10.555196,1.95878 21.916926,7.88939 9.804952,5.11755 48.012711,26.11941 58.302082,31.78067 0.0019,0.002 9.944649,7.42558 18.282279,3.8462 8.33864,-3.57936 10.50093,-7.75722 14.46975,-15.74309 3.96981,-7.98588 13.9014,-29.29226 15.3617,-32.36811"
       style="fill:#21293d;fill-opacity:1;fill-rule:nonzero;stroke:none;stroke-width:0.0502507" />
    <path
       id="path50"
       d="m 46.701408,73.660644 c 6.433624,1.976366 20.769695,0.883915 26.851564,3.949719 6.081863,3.065809 14.353159,6.812012 14.353159,6.812012 l 11.17429,-23.545553 c -1.178885,-0.230151 -2.424607,-0.325626 -3.47686,-0.07789 -3.03113,0.715068 -13.157692,9.00898 -13.157692,9.00898 0,0 -14.160196,-7.976325 -20.504875,-9.731086 -6.345179,-1.755262 -11.05419,-5.066797 -19.43001,-3.299473 -8.375314,1.767826 -13.447138,3.379874 -14.48331,5.185388 -0.06482,0.112565 -0.215577,0.409546 -0.441201,0.867331 5.071822,4.261779 14.274266,9.343149 19.114935,10.830573"
       style="fill:#283049;fill-opacity:1;fill-rule:nonzero;stroke:none;stroke-width:0.0502507" />
    <path
       id="path51"
       d="m 86.053381,66.958685 c -2.061793,1.583404 -3.607512,2.849226 -3.607512,2.849226 0,0 -14.160196,-7.976325 -20.504875,-9.731086 -6.345179,-1.755262 -11.05419,-5.066797 -19.43001,-3.299473 -8.375314,1.767826 -13.447138,3.379874 -14.48331,5.185388 -0.06482,0.112565 -0.215577,0.409546 -0.441201,0.867331 5.071822,4.261779 14.274266,9.343149 19.114935,10.830573 0.89346,0.273868 1.9427,0.487937 3.096961,0.663311 10.532085,-1.521595 22.259135,-4.74971 24.615901,-4.20047 3.716554,0.866828 14.780294,2.887414 14.780294,2.887414 l -3.141183,-6.052214"
       style="fill:#353e56;fill-opacity:1;fill-rule:nonzero;stroke:none;stroke-width:0.0502507" />
    <path
       id="path52"
       d="M 83.548374,68.919472 C 75.333361,78.393775 63.531936,91.893177 59.427947,96.029829 L 39.752211,137.49033 c 10.251686,5.37132 47.813218,26.01841 58.00259,31.62439 2.64e-4,2.7e-4 1.678384,1.25175 4.230629,2.47938 8.58184,-18.08328 18.28579,-38.53037 19.78679,-41.69316 2.77184,-5.83966 2.65274,-16.93254 1.40903,-24.52093 -1.24421,-7.588887 -4.71805,-33.731914 -4.71805,-33.731914 L 95.603561,60.798931 c -2.418575,0.570852 -9.350682,5.963274 -12.055187,8.120541"
       style="fill:#283049;fill-opacity:1;fill-rule:nonzero;stroke:none;stroke-width:0.0502507" />
    <path
       id="path53"
       d="m 145.86802,124.84972 c 1.45979,-3.07536 4.4261,-10.46073 -0.55829,-16.59486 -4.98489,-6.13362 -10.84263,-8.913499 -11.64966,-12.885831 -0.80703,-3.97183 2.51405,-11.72705 0.11105,-15.738581 -2.40249,-4.011022 -4.19997,-5.470308 -4.19997,-5.470308 0,0 1.30954,-3.752233 -0.8613,-4.849714 -2.17084,-1.097479 -6.33814,-0.114573 -6.33814,-0.114573 l -9.28235,-4.404992 c 0,0 2.01456,-2.543196 -0.45426,-3.580376 -2.46832,-1.036677 -7.9115,0.0809 -7.9115,0.0809 l -1.44924,0.927632 c 0,0 -4.640167,-2.135158 -7.670799,-1.42009 -3.03113,0.715068 -10.017514,6.55121 -10.017514,6.55121 1.866318,-0.908537 12.722016,1.551744 16.606913,3.574846 3.8849,2.023102 11.97931,4.967301 14.64562,7.667781 2.66581,2.700989 0.95125,6.732114 3.69445,9.64918 2.7432,2.917063 6.69995,1.384911 6.69995,1.384911 -2.13265,16.215465 10.01852,18.213935 12.39237,20.775735 2.37285,2.56179 1.82662,11.27478 0.22814,14.6436 -1.59898,3.36832 -15.15315,31.92842 -19.04509,40.12987 -3.89243,8.20195 -10.08585,10.28736 -20.48477,5.35272 0,0 -0.93467,-0.51507 -2.568829,-1.41406 0.0019,0.002 9.944649,7.42558 18.282279,3.8462 8.33864,-3.57936 10.50093,-7.75722 14.46975,-15.74309 3.96981,-7.98588 13.9014,-29.29226 15.36119,-32.36811"
       style="fill:#141a28;fill-opacity:1;fill-rule:nonzero;stroke:none;stroke-width:0.0502507" />
    <path
       id="path54"
       d="m 145.30973,108.25486 c -4.98489,-6.13362 -10.84263,-8.913499 -11.64966,-12.885831 -0.80703,-3.97183 2.51405,-11.72705 0.11105,-15.738581 -0.87939,-1.468831 -1.67687,-2.59244 -2.33566,-3.430124 -5.2683,-0.209045 -11.02756,0.635172 -15.45516,1.648732 0.32562,0.249746 0.61557,0.497986 0.85828,0.743712 2.66581,2.700989 0.95125,6.732114 3.69445,9.64918 2.7432,2.917063 6.69995,1.384911 6.69995,1.384911 -2.13265,16.215461 10.01852,18.213941 12.39237,20.775731 2.37285,2.56179 1.82662,11.27479 0.22814,14.64361 -1.59898,3.36832 -15.15315,31.92841 -19.04509,40.12986 -3.89243,8.20195 -10.08585,10.28736 -20.48477,5.35272 0,0 -0.93467,-0.51507 -2.568829,-1.41406 0.0019,0.002 9.944649,7.42558 18.282279,3.8462 8.33864,-3.57936 10.50093,-7.75722 14.46975,-15.74309 3.96981,-7.98588 13.9014,-29.29226 15.36119,-32.36811 1.45979,-3.07536 4.4261,-10.46073 -0.55829,-16.59486"
       style="fill:#1e2635;fill-opacity:1;fill-rule:nonzero;stroke:none;stroke-width:0.0502507" />
    <path
       id="path55"
       d="M 74.763515,80.989737 C 71.630874,84.364588 48.078281,109.73626 48.078281,109.73626 l 62.392509,29.61034 c 0,0 6.85925,-31.09073 7.97381,-36.84245 1.11457,-5.751713 -2.13566,-14.099391 -5.36227,-15.996866 -3.22711,-1.89697 -23.553094,-11.177304 -26.189257,-12.428551 -2.63616,-1.250746 -8.996416,3.536154 -12.129558,6.911004"
       style="fill:#21293d;fill-opacity:1;fill-rule:nonzero;stroke:none;stroke-width:0.0502507" />
    <path
       id="path56"
       d="m 75.108235,162.97557 c 0.596479,-0.15477 1.189437,-0.32562 1.777373,-0.50954 0.596479,-0.15528 1.188937,-0.32563 1.776873,-0.51005 0.596982,-0.15527 1.188934,-0.32512 1.777373,-0.51004 0.596982,-0.15478 1.189439,-0.32512 1.777375,-0.50904 0.59698,-0.15578 1.189437,-0.32614 1.777373,-0.51005 0.596477,-0.15578 1.18944,-0.32563 1.777376,-0.51005 10.414494,-2.71053 19.603372,-9.83359 24.578712,-20.31643 8.92556,-18.8069 0.91457,-41.287642 -17.891829,-50.213208 -8.923552,-4.234643 -18.673228,-4.650721 -27.410854,-1.915059 -0.59698,0.155273 -1.188937,0.325625 -1.777373,0.510045 -0.596479,0.155274 -1.188937,0.325123 -1.776873,0.509543 -0.596982,0.155276 -1.18994,0.32613 -1.778378,0.51005 -0.59648,0.155274 -1.188937,0.325626 -1.776871,0.509543 -0.596479,0.155276 -1.188939,0.325625 -1.777375,0.510045 -0.596479,0.155276 -1.188937,0.325625 -1.776873,0.509545 -0.596979,0.155276 -1.189437,0.326126 -1.777875,0.510045 -0.596479,0.155276 -1.188937,0.325626 -1.776873,0.510048 -10.414995,2.710535 -19.603876,9.833593 -24.578712,20.316433 -8.925062,18.8064 -0.914567,41.28764 17.891829,50.2127 8.924054,4.23515 18.673227,4.65072 27.411359,1.91557 0.596474,-0.15578 1.188931,-0.32613 1.777373,-0.51005 0.596476,-0.15578 1.188934,-0.32563 1.77687,-0.51005"
       style="fill:#141a28;fill-opacity:1;fill-rule:nonzero;stroke:none;stroke-width:0.0502507" />
    <path
       id="path57"
       d="m 84.404145,88.717819 c -2.806509,-1.332147 -5.689406,-2.305507 -8.597421,-2.96279 -3.668818,0.05176 -7.293414,0.632155 -10.758717,1.717074 -0.59698,0.155273 -1.188937,0.325625 -1.777373,0.510045 -0.596479,0.155274 -1.188937,0.325123 -1.776873,0.509543 -0.596982,0.155276 -1.18994,0.32613 -1.778378,0.51005 -0.59648,0.155274 -1.188937,0.325626 -1.776871,0.509543 -0.596479,0.155276 -1.188939,0.325625 -1.777375,0.510045 -0.596479,0.155276 -1.188937,0.325625 -1.776873,0.509545 -0.596979,0.155276 -1.189437,0.326126 -1.777875,0.510045 -0.596479,0.155276 -1.188937,0.325626 -1.776873,0.510048 -6.195933,1.612548 -11.957701,4.7869 -16.656156,9.300933 -1.719588,2.24923 -3.235153,4.7065 -4.497959,7.36679 -9.727565,20.49784 -0.996976,45.00017 19.501366,54.72874 2.261791,1.07286 4.574842,1.90903 6.909495,2.5422 5.257753,0.59044 10.524549,0.0533 15.46773,-1.49396 0.596474,-0.15578 1.188931,-0.32613 1.777373,-0.51005 0.596476,-0.15578 1.188934,-0.32563 1.77687,-0.51005 0.596479,-0.15477 1.189437,-0.32562 1.777373,-0.50954 0.596479,-0.15528 1.188937,-0.32563 1.776873,-0.51005 0.596982,-0.15527 1.188934,-0.32512 1.777373,-0.51004 0.596982,-0.15478 1.189439,-0.32512 1.777375,-0.50904 0.59698,-0.15578 1.189437,-0.32614 1.777373,-0.51005 0.596477,-0.15578 1.18944,-0.32563 1.777376,-0.51005 2.754251,-0.71657 5.422066,-1.74521 7.949689,-3.05978 4.162782,-3.61052 7.669293,-8.11401 10.183343,-13.41095 9.72757,-20.49785 0.99698,-45.00068 -19.500865,-54.728251"
       style="fill:#404b69;fill-opacity:1;fill-rule:nonzero;stroke:none;stroke-width:0.0502507" />
    <path
       id="path102"
       d="M 94.355328,144.18828 C 103.28089,125.38188 95.269897,102.90063 76.4635,93.975572 57.656604,85.050512 35.175864,93.061005 26.250804,111.8674 c -8.925062,18.8064 -0.914567,41.28764 17.891829,50.2127 18.806395,8.92506 41.287635,0.91457 50.212695,-17.89182"
       style="fill:#283049;fill-opacity:1;fill-rule:nonzero;stroke:none;stroke-width:0.0502507" />
    <path
       id="path103"
       d="m 48.918478,152.01686 c -13.24865,-6.28789 -18.891321,-22.12497 -12.603929,-35.37361 6.287391,-13.24865 22.12446,-18.891825 35.373108,-12.60393 13.248645,6.28739 18.891824,22.12446 12.603929,35.37311 -6.287394,13.24865 -22.124463,18.89132 -35.373108,12.60443 M 74.833865,97.409718 C 57.923937,89.384651 37.710017,96.587615 29.684947,113.49704 c -8.025066,16.91043 -0.822605,37.12385 16.087323,45.14892 16.909925,8.02506 37.123848,0.82261 45.148912,-16.08783 8.025072,-16.90942 0.822608,-37.12335 -16.087317,-45.148412"
       style="fill:#404b69;fill-opacity:1;fill-rule:nonzero;stroke:none;stroke-width:0.0502507" />
    <path
       id="path104"
       d="m 98.576909,136.53657 c 0.570346,-2.55576 0.875368,-5.13363 0.927129,-7.69593 l -3.014552,-0.0608 c -0.04774,2.36431 -0.329144,4.74168 -0.855271,7.09945 l 2.942694,0.65728 m 0.934161,-8.73109 c -0.01659,-2.602 -0.292962,-5.18288 -0.816073,-7.70598 l -2.952239,0.61206 c 0.48291,2.32963 0.738182,4.71202 0.753258,7.11301 l 3.015054,-0.0191 m -1.039688,-8.71652 c -0.591455,-2.52058 -1.430644,-4.97685 -2.503501,-7.3311 l -2.7437,1.24974 c 0.990447,2.17435 1.765816,4.44318 2.312046,6.7708 l 2.935155,-0.68944 m -2.944704,-8.26678 c -1.129638,-2.31656 -2.48943,-4.5271 -4.065802,-6.59442 l -2.397466,1.82813 c 1.454761,1.90803 2.710029,3.94871 3.753239,6.0884 l 2.710029,-1.32211 m -4.703484,-7.40798 c -1.608027,-1.99647 -3.424095,-3.849221 -5.435637,-5.521068 l -1.927125,2.318578 c 1.855266,1.5422 3.530629,3.25123 5.014539,5.09393 l 2.348223,-1.89144 m -6.240153,-6.171818 c -1.999988,-1.574864 -4.18138,-2.974351 -6.53161,-4.166304 l -1.363811,2.688926 c 2.171843,1.101503 4.185396,2.393452 6.030108,3.846203 l 1.865313,-2.368825 m -7.460247,-4.622578 -0.01307,-0.006 c -2.377871,-1.128638 -4.814541,-1.997474 -7.27633,-2.617067 l -0.735674,2.924098 c 2.271342,0.571352 4.52057,1.373357 6.719552,2.417069 l 0.01254,0.006 1.293458,-2.7236 -2.65e-4,-2.65e-4 m -8.296426,-2.862291 c -2.555255,-0.571355 -5.132622,-0.877382 -7.694916,-0.930146 l -0.06231,3.014552 c 2.364304,0.04874 4.741672,0.33065 7.099446,0.857784 l 0.65778,-2.94219 m -8.730588,-0.937684 c -2.601989,0.01556 -5.182875,0.290955 -7.705973,0.81306 l 0.610547,2.952742 c 2.329635,-0.481907 4.712528,-0.736174 7.113518,-0.750747 l -0.0181,-3.015055 m -8.71702,1.036172 c -2.520083,0.590952 -4.97685,1.428634 -7.332107,2.500987 l 1.249238,2.744203 c 2.174859,-0.989944 4.443685,-1.76431 6.771307,-2.310035 l -0.688435,-2.935155 m -8.267277,2.941185 c -2.317573,1.129139 -4.528608,2.487925 -6.596435,4.063791 l 1.827122,2.397975 c 1.90853,-1.453762 3.949721,-2.708524 6.089907,-3.751231 l -1.320594,-2.710535 m -7.409997,4.700974 c -1.997473,1.607024 -3.850725,3.422585 -5.52358,5.433125 l 2.318075,1.92863 c 1.543206,-1.85526 3.252743,-3.52962 5.095942,-5.013028 l -1.890437,-2.348727 m -6.174831,6.237635 c -1.575361,1.99949 -2.975853,4.18038 -4.168812,6.52961 l 2.688426,1.36481 c 1.102503,-2.17134 2.395456,-4.18389 3.848711,-6.0286 l -2.368325,-1.86582 m -4.624586,7.45774 -0.01307,0.0276 c -1.126625,2.37335 -1.993953,4.80499 -2.613546,7.26125 l 2.923595,0.73718 c 0.571855,-2.26681 1.372352,-4.51152 2.413551,-6.70548 l 0.01206,-0.0256 -2.722595,-1.29496 m -2.866424,8.29582 c -0.572359,2.55525 -0.879393,5.13262 -0.932658,7.69491 l 3.014048,0.0628 c 0.04975,-2.3638 0.33266,-4.74117 0.860798,-7.09844 l -2.942188,-0.65929 m -0.940697,8.73009 c 0.01459,2.60199 0.28894,5.18338 0.809542,7.70648 l 2.953246,-0.60955 c -0.481407,-2.33013 -0.734671,-4.71303 -0.747734,-7.11351 l -3.015054,0.0166 m 1.032151,8.71753 c 0.589948,2.52058 1.427126,4.97735 2.497973,7.33311 l 2.744703,-1.24823 c -0.988936,-2.17486 -1.761797,-4.44419 -2.306516,-6.77181 l -2.93616,0.68693 m 2.938673,8.26878 c 1.128133,2.31757 2.485912,4.52911 4.060772,6.59794 l 2.398977,-1.82662 c -1.453255,-1.90903 -2.707012,-3.95072 -3.748714,-6.09091 l -2.711035,1.31959 m 4.69745,7.4115 c 1.606523,1.99798 3.421586,3.85223 5.431118,5.52559 l 1.929133,-2.31707 c -1.853756,-1.5437 -3.528116,-3.25424 -5.010518,-5.09795 l -2.349733,1.88943 m 6.235131,6.17735 c 1.99898,1.57586 4.179369,2.97736 6.528597,4.17132 l 1.365819,-2.68792 c -2.170838,-1.10351 -4.183386,-2.39696 -6.02709,-3.85123 l -1.867326,2.36783 m 7.456228,4.6276 0.04171,0.0196 c 2.368325,1.12411 4.794941,1.99043 7.246181,2.60952 l 0.738182,-2.92359 c -2.26179,-0.57085 -4.501975,-1.37034 -6.69191,-2.40953 l -0.03869,-0.0186 -1.295469,2.7226 m 8.294413,2.86933 c 2.555256,0.57336 5.132625,0.88139 7.694416,0.93617 l 0.06482,-3.01455 c -2.364304,-0.0508 -4.741172,-0.33467 -7.098942,-0.86381 l -0.660297,2.94219 m 8.730085,0.94421 c 2.601992,-0.0136 5.183383,-0.28693 7.706982,-0.80703 l -0.608539,-2.95274 c -2.330135,0.47989 -4.713031,0.73215 -7.114019,0.74471 l 0.01556,3.01506 v 0 m 8.717526,-1.02914 c 2.521085,-0.58894 4.978355,-1.42511 7.334118,-2.49496 l -1.246725,-2.7452 c -2.175361,0.98793 -4.445195,1.76029 -6.772817,2.3045 l 0.685424,2.93566 m 8.270291,-2.93465 c 2.318072,-1.12713 4.530119,-2.48441 6.599446,-4.05826 l -1.825614,-2.39999 c -1.90953,1.45276 -3.951727,2.70551 -6.092415,3.74671 l 1.318583,2.71103 v 2.7e-4 m 7.413511,-4.69494 c 1.99848,-1.60552 3.853238,-3.41957 5.527601,-5.42911 l -2.316062,-1.93013 c -1.544715,1.85375 -3.255759,3.5271 -5.099963,5.009 l 1.888424,2.35024 m 6.179359,-6.23303 c 1.576875,-1.99798 2.979381,-4.17786 4.173842,-6.52659 l -2.687418,-1.36682 c -1.104011,2.17084 -2.398477,4.18238 -3.853238,6.02558 l 2.366814,1.86783 m 4.630621,-7.45372 0.02665,-0.0558 c 1.131147,-2.38289 2.000991,-4.82458 2.620585,-7.2909 l -2.924101,-0.73466 c -0.571855,2.27586 -1.374865,4.52961 -2.420083,6.73261 l -0.02461,0.0518 2.721586,1.29697 v 0"
       style="fill:#1a2133;fill-opacity:1;fill-rule:nonzero;stroke:none;stroke-width:0.0502507" />
    <path
       id="path105"
       d="m 127.08273,135.50643 c -0.55879,-0.7809 -1.44019,-1.10854 -2.28089,-1.02161 l -0.0487,0.004 -0.0487,0.004 -0.0482,0.003 -0.0487,0.004 -0.0488,0.004 -0.0477,0.004 -0.0487,0.005 -0.0487,0.003 -0.0482,0.004 -0.0482,0.004 -0.0493,0.005 -0.0482,0.004 -0.0482,0.004 -0.0487,0.004 -0.0487,0.004 -0.0482,0.004 -0.0482,0.005 -0.0488,0.004 -0.0482,0.003 -0.0487,0.004 -0.0482,0.005 -0.0487,0.004 -0.0482,0.004 -0.0487,0.004 -0.0482,0.004 -0.0482,0.004 -0.0487,0.004 -0.0487,0.004 -0.0482,0.003 -0.0487,0.004 -0.0487,0.005 -0.0477,0.004 -0.0487,0.004 -0.0487,0.004 -0.0482,0.004 -0.0487,0.004 -0.0482,0.005 -0.0482,0.004 -0.0487,0.003 -0.0487,0.004 -0.0482,0.004 -0.0487,0.004 -0.0482,0.004 -0.0482,0.004 -0.0487,0.004 -0.0482,0.004 -0.0487,0.005 -0.0487,0.004 -0.0482,0.004 -0.0487,0.004 -0.0482,0.004 -0.0487,0.004 -0.0488,0.004 -0.0477,0.005 -0.0487,0.003 -0.0487,0.004 -0.0482,0.005 -0.0482,0.004 -0.0493,0.004 -0.0477,0.004 -0.0487,0.004 -0.0487,0.004 -0.0477,0.005 -0.0487,0.004 -0.0487,0.003 -0.0482,0.004 -0.0487,0.005 -0.0482,0.004 -0.0487,0.004 -0.0482,0.004 -0.0487,0.004 -0.0487,0.004 -0.0482,0.005 -0.0482,0.004 -0.0487,0.003 -0.0482,0.004 -0.0487,0.004 -0.0482,0.004 -0.0487,0.004 -0.0482,0.004 -0.0487,0.004 -0.0482,0.004 -0.0482,0.005 -0.0493,0.004 -0.0482,0.004 -0.0482,0.003 -0.0487,0.004 -0.0487,0.004 -0.0477,0.004 -0.0493,0.005 -0.0482,0.003 -0.0482,0.004 -0.0487,0.005 -0.0487,0.004 -0.0477,0.004 -0.0487,0.004 -0.0487,0.004 -0.0482,0.004 -0.0487,0.004 -0.0487,0.004 -0.0477,0.003 -0.0487,0.004 -0.0487,0.005 -0.0482,0.004 -0.0482,0.004 -0.0487,0.004 -0.0493,0.004 -0.0477,0.004 -0.0482,0.004 -0.0493,0.004 -0.0477,0.003 -0.0487,0.004 -0.0487,0.004 -0.0482,0.004 -0.0482,0.004 -0.0493,0.004 -0.0477,0.004 -0.0487,0.004 -0.0487,0.005 -0.0477,0.004 -0.0493,0.004 -0.0482,0.003 -0.0482,0.005 -0.0487,0.004 -0.0487,0.004 -0.0482,0.005 -0.0482,0.003 -0.0487,0.004 -0.0487,0.005 -0.0482,0.004 -0.0482,0.004 -0.0487,0.003 -0.0482,0.005 -0.0487,0.004 -0.0487,0.004 -0.0482,0.005 -0.0482,0.003 -0.0487,0.004 -0.0482,0.005 -0.0487,0.004 -0.0487,0.004 -0.0482,0.003 -0.0482,0.005 -0.0487,0.004 -0.0487,0.004 -0.0477,0.004 -0.0492,0.003 -0.0482,0.004 -0.0482,0.005 -0.0487,0.004 -0.0482,0.004 -0.0482,0.004 -0.0487,0.004 -0.0487,0.004 -0.0482,0.004 -0.0487,0.004 -0.0482,0.003 -0.0487,0.004 c -0.84572,0.0719 -1.65878,0.56081 -2.07184,1.43115 l -3.84922,8.11 c -0.81708,1.72159 0.50603,3.71303 2.40802,3.59092 l 0.0422,-0.004 h 0.007 l 0.0422,-0.004 h 0.007 l 0.0422,-0.003 h 0.006 l 0.0417,-0.005 h 0.007 l 0.0422,-0.004 h 0.006 l 0.0422,-0.004 h 0.006 l 0.0422,-0.005 h 0.007 l 0.0422,-0.003 h 0.007 l 0.0417,-0.004 h 0.007 l 0.0422,-0.005 h 0.007 l 0.0417,-0.004 h 0.006 l 0.0422,-0.004 h 0.006 l 0.0422,-0.004 h 0.006 l 0.0417,-0.004 h 0.007 l 0.0417,-0.004 h 0.007 l 0.0427,-0.004 h 0.005 l 0.0422,-0.005 h 0.007 l 0.0422,-0.003 h 0.007 l 0.0422,-0.004 h 0.006 l 0.0417,-0.005 h 0.007 l 0.0417,-0.004 h 0.006 l 0.0427,-0.004 h 0.005 l 0.0422,-0.004 0.006,2.7e-4 0.0422,-0.005 h 0.006 l 0.0422,-0.004 h 0.006 l 0.0417,-0.004 h 0.007 l 0.0427,-0.005 h 0.006 l 0.0422,-0.003 h 0.006 l 0.0422,-0.004 h 0.007 l 0.0422,-0.005 h 0.007 l 0.0417,-0.004 h 0.007 l 0.0417,-0.004 h 0.006 l 0.0422,-0.004 h 0.006 l 0.0422,-0.004 h 0.006 l 0.0422,-0.004 h 0.006 l 0.0422,-0.005 h 0.007 l 0.0417,-0.004 h 0.007 l 0.0422,-0.003 h 0.006 l 0.0427,-0.004 h 0.006 l 0.0417,-0.005 h 0.007 l 0.0422,-0.004 h 0.006 l 0.0417,-0.004 h 0.007 l 0.0422,-0.005 h 0.007 l 0.0422,-0.003 h 0.006 l 0.0422,-0.004 h 0.007 l 0.0422,-0.005 0.007,2.6e-4 0.0422,-0.005 h 0.005 l 0.0422,-0.004 h 0.007 l 0.0422,-0.003 h 0.007 l 0.0422,-0.005 h 0.007 l 0.0417,-0.004 h 0.007 l 0.0417,-0.004 h 0.007 l 0.0427,-0.005 h 0.006 l 0.0422,-0.003 h 0.006 l 0.0422,-0.004 h 0.006 l 0.0422,-0.005 h 0.006 l 0.0417,-0.004 h 0.007 l 0.0422,-0.004 h 0.006 l 0.0422,-0.003 h 0.007 l 0.0422,-0.005 h 0.006 l 0.0422,-0.004 h 0.007 l 0.0417,-0.004 h 0.007 l 0.0417,-0.005 h 0.006 l 0.0422,-0.003 h 0.006 l 0.0422,-0.004 h 0.006 l 0.0422,-0.005 h 0.006 l 0.0422,-0.004 h 0.007 l 0.0417,-0.004 h 0.007 l 0.0422,-0.004 0.007,2.7e-4 0.0422,-0.005 h 0.006 l 0.0422,-0.004 h 0.007 l 0.0417,-0.004 h 0.007 l 0.0422,-0.005 h 0.006 l 0.0417,-0.003 h 0.006 l 0.0422,-0.004 h 0.006 l 0.0422,-0.005 h 0.006 l 0.0417,-0.004 h 0.007 l 0.0422,-0.004 h 0.007 l 0.0417,-0.005 0.006,2.7e-4 0.0422,-0.004 h 0.007 l 0.0427,-0.004 h 0.006 l 0.0422,-0.004 h 0.006 l 0.0417,-0.005 h 0.007 l 0.0422,-0.004 h 0.006 l 0.0422,-0.003 h 0.006 l 0.0422,-0.005 h 0.007 l 0.0422,-0.004 h 0.007 l 0.0422,-0.004 h 0.007 l 0.0417,-0.005 h 0.006 l 0.0422,-0.003 h 0.007 l 0.0422,-0.004 h 0.007 l 0.0422,-0.005 0.006,2.6e-4 0.0422,-0.005 h 0.007 l 0.0417,-0.004 h 0.007 l 0.0427,-0.003 h 0.005 l 0.0422,-0.005 h 0.007 l 0.0422,-0.004 h 0.007 l 0.0422,-0.004 h 0.006 l 0.0417,-0.005 h 0.007 l 0.0417,-0.003 h 0.007 l 0.0427,-0.004 h 0.005 l 0.0422,-0.005 h 0.006 l 0.0417,-0.004 h 0.007 l 0.0422,-0.004 h 0.006 l 0.0417,-0.003 h 0.007 l 0.0422,-0.005 h 0.007 l 0.0422,-0.004 h 0.007 l 0.0422,-0.004 h 0.006 l 0.0417,-0.005 h 0.007 l 0.0422,-0.003 h 0.006 l 0.0422,-0.004 h 0.006 l 0.0422,-0.005 h 0.006 l 0.0422,-0.004 h 0.006 l 0.0417,-0.004 h 0.007 l 0.0422,-0.004 h 0.006 l 0.0422,-0.004 h 0.007 l 0.0422,-0.004 h 0.006 l 0.0422,-0.004 h 0.007 l 0.0417,-0.005 h 0.007 l 0.0417,-0.004 h 0.006 l 0.0427,-0.003 h 0.006 l 0.0422,-0.005 h 0.007 l 0.0422,-0.004 h 0.006 l 0.0422,-0.004 h 0.007 l 0.0417,-0.005 0.007,2.7e-4 0.0417,-0.004 h 0.007 l 0.0422,-0.004 h 0.006 l 0.0422,-0.004 h 0.007 l 0.0422,-0.005 h 0.007 l 0.0417,-0.004 h 0.007 l 0.0417,-0.003 h 0.006 l 0.0427,-0.005 h 0.006 l 0.0422,-0.004 h 0.006 l 0.0422,-0.004 h 0.007 l 0.0422,-0.005 h 0.007 l 0.0422,-0.003 h 0.005 l 0.0422,-0.004 h 0.007 l 0.0422,-0.005 0.007,2.7e-4 0.0422,-0.005 h 0.006 l 0.0417,-0.004 h 0.007 l 0.0422,-0.003 h 0.006 l 0.0422,-0.005 h 0.006 l 0.0422,-0.004 h 0.007 l 0.0422,-0.004 h 0.007 l 0.0417,-0.005 h 0.007 l 0.0422,-0.003 h 0.006 l 0.0417,-0.004 h 0.007 l 0.0422,-0.005 0.007,2.6e-4 0.0422,-0.005 h 0.006 l 0.0422,-0.004 h 0.007 l 0.0417,-0.004 h 0.007 l 0.0422,-0.004 h 0.006 l 0.0422,-0.004 h 0.007 l 0.0422,-0.004 h 0.007 l 0.0422,-0.005 h 0.006 l 0.0417,-0.004 h 0.007 l 0.0417,-0.003 h 0.007 l 0.0427,-0.005 h 0.005 l 0.0422,-0.004 h 0.007 c 2.68592,-0.17236 5.20097,-1.75778 6.43664,-4.36178 1.23567,-2.604 0.87387,-5.55473 -0.69095,-7.74466"
       style="fill:#283049;fill-opacity:1;fill-rule:nonzero;stroke:none;stroke-width:0.0502507" />
    <path
       id="path106"
       d="m 111.21903,144.66968 c -0.81708,1.72159 0.50602,3.71304 2.40802,3.59092 2.68641,-0.17235 5.20097,-1.75777 6.43664,-4.36177 1.23617,-2.604 0.87386,-5.55423 -0.69095,-7.74467 -1.10804,-1.55074 -3.48742,-1.31657 -4.30449,0.40552 l -3.84922,8.11"
       style="fill:#404b69;fill-opacity:1;fill-rule:nonzero;stroke:none;stroke-width:0.0502507" />
    <path
       id="path109"
       d="m 120.31896,71.258653 1.59346,-1.372351 5.43362,-0.247235 c 0,0 1.22311,-0.02513 1.9221,0.912054 0.69949,0.93768 -1.51104,1.625615 -1.51104,1.625615 l -4.7472,0.359291 -2.69094,-1.277374"
       style="fill:#404b69;fill-opacity:1;fill-rule:nonzero;stroke:none;stroke-width:0.0502507" />
    <path
       id="path110"
       d="m 53.290305,70.017456 c 5.537647,-2.311037 -0.165828,-6.363771 -3.059276,-8.678831 -1.14572,-0.916577 -3.230629,-2.890935 -5.331617,-4.941673 -0.763815,0.08191 -1.557276,0.205526 -2.388428,0.3804 -7.566276,1.596974 -12.425537,3.067814 -14.059696,4.667805 3.192944,2.731641 7.968787,6.170308 11.119017,7.704466 4.045196,1.96933 8.181848,3.178873 13.72,0.867833"
       style="fill:#404b69;fill-opacity:1;fill-rule:nonzero;stroke:none;stroke-width:0.0502507" />
    <path
       id="path111"
       d="m 48.373757,63.749662 -0.106529,-0.04422 -0.09498,-0.05125 -0.106032,-0.04422 -0.09497,-0.05126 -0.106529,-0.04422 -0.09497,-0.05126 -0.106532,-0.04422 -0.09497,-0.05126 -0.106531,-0.04422 -0.09497,-0.05126 -0.106029,-0.04472 -0.09497,-0.05126 -0.106532,-0.04422 -0.09497,-0.05125 -0.106529,-0.04422 -0.09497,-0.05126 -0.106532,-0.04422 -0.09497,-0.05126 -0.106029,-0.04422 -0.09497,-0.05125 c -1.77386,-0.841706 -4.867304,-0.548741 -6.910504,0.654767 -2.043203,1.203007 -2.261794,2.860786 -0.48844,3.702486 l 0.106532,0.04422 0.09497,0.05125 0.106535,0.04423 0.09447,0.05126 0.107034,0.04472 0.09447,0.05126 0.106532,0.04422 0.09497,0.05126 0.106535,0.04422 0.09497,0.05126 0.106531,0.04422 0.09447,0.05126 0.107035,0.04422 0.09447,0.05125 0.106529,0.04472 0.09498,0.05075 0.106532,0.04472 0.09498,0.05125 0.106535,0.04422 0.09447,0.05126 c 1.773856,0.8417 4.867801,0.548738 6.911006,-0.65477 2.0432,-1.203004 2.261291,-2.860783 0.487934,-3.702989"
       style="fill:#1b2230;fill-opacity:1;fill-rule:nonzero;stroke:none;stroke-width:0.0502507" />
    <path
       id="path112"
       d="m 46.596887,66.841099 c 1.937173,-1.140698 2.144204,-2.712543 0.463311,-3.510529 -1.681898,-0.797983 -4.615039,-0.520097 -6.552213,0.620599 -1.93717,1.140695 -2.144707,2.712542 -0.463314,3.510528 1.681398,0.797984 4.615045,0.520095 6.552216,-0.620598"
       style="fill:#353e56;fill-opacity:1;fill-rule:nonzero;stroke:none;stroke-width:0.0502507" />
    <path
       id="path113"
       d="m 80.791109,69.354146 c 0.06281,-0.132162 0.427633,-0.901502 0.427633,-0.901502 -0.668338,-1.099995 -4.320066,-2.774855 -8.29642,-4.661773 -4.089922,-1.940692 -7.68286,-3.738668 -8.857221,-3.479374 0,0 -0.37437,0.78894 -0.428138,0.902004 -0.390951,0.824116 3.131634,3.315049 7.868787,5.562772 4.737151,2.248226 8.893903,3.402489 9.285359,2.577873"
       style="fill:#141a28;fill-opacity:1;fill-rule:nonzero;stroke:none;stroke-width:0.0502507" />
    <path
       id="path114"
       d="m 81.218742,68.452644 c 0.391454,-0.824616 -3.131129,-3.315052 -7.868285,-5.563275 -4.73715,-2.247722 -8.894408,-3.401986 -9.285356,-2.577872 -0.390951,0.824619 3.131632,3.315052 7.868787,5.563277 4.736648,2.248223 8.893903,3.401981 9.284854,2.57787"
       style="fill:#404b69;fill-opacity:1;fill-rule:nonzero;stroke:none;stroke-width:0.0502507" />
    <path
       id="path115"
       d="M 64.231934,65.066739 50.864695,58.723066 c -0.211558,-0.1 -0.464317,-0.01005 -0.564822,0.201509 l -0.01857,0.03919 c -0.100505,0.211553 -0.01056,0.464818 0.201504,0.564817 l 13.367239,6.344176 c 0.211558,0.1005 0.464318,0.01006 0.564819,-0.201506 l 0.01857,-0.0392 c 0.100502,-0.211555 0.01005,-0.464317 -0.201504,-0.565322"
       style="fill:#1b2230;fill-opacity:1;fill-rule:nonzero;stroke:none;stroke-width:0.0502507" />
    <path
       id="path116"
       d="m 59.82945,60.575816 c -0.08743,-0.0412 -0.174871,-0.07739 -0.262308,-0.115578 -0.08492,-0.04372 -0.168339,-0.08844 -0.255775,-0.130149 -0.08694,-0.0412 -0.174874,-0.07789 -0.262311,-0.115578 -0.08442,-0.04372 -0.168341,-0.08895 -0.255275,-0.130148 -0.08744,-0.04171 -0.174874,-0.07789 -0.262811,-0.115578 -0.08442,-0.04372 -0.167838,-0.08894 -0.255275,-0.130149 -0.08693,-0.04171 -0.174871,-0.07789 -0.262813,-0.115578 -0.08392,-0.04422 -0.167836,-0.08894 -0.255273,-0.130148 -0.08694,-0.04171 -0.174374,-0.07789 -0.262311,-0.115578 -0.08442,-0.04372 -0.168341,-0.08894 -0.255778,-0.130149 -0.08693,-0.04171 -0.174368,-0.07789 -0.26231,-0.115578 -0.08442,-0.04422 -0.168339,-0.08894 -0.255273,-0.130651 -2.21757,-1.052253 -4.559262,-0.924113 -5.764281,0.185928 l 0.518089,0.245727 0.518088,0.245726 0.518084,0.245727 0.517586,0.245726 0.518085,0.245727 0.518086,0.246229 6.15724,2.922092 0.518089,0.245727 0.517583,0.245726 0.518089,0.245727 0.518088,0.246229 0.518083,0.245224 0.518089,0.246229 c 0.09799,-1.635667 -1.283912,-3.530126 -3.501485,-4.582882"
       style="fill:#141a28;fill-opacity:1;fill-rule:nonzero;stroke:none;stroke-width:0.0502507" />
    <path
       id="path117"
       d="m 2207.88,3546.71 -275.24,130.63 -5.59,-11.77 275.24,-130.62 5.59,11.76"
       style="fill:#283049;fill-opacity:1;fill-rule:nonzero;stroke:none"
       transform="matrix(0.05025089,0,0,-0.05025089,-47.10243,243.7981)"
       clip-path="url(#clipPath118)" />
    <path
       id="path119"
       d="m 2215.56,3562.89 -275.24,130.63 -5.59,-11.76 275.24,-130.63 5.59,11.76"
       style="fill:#283049;fill-opacity:1;fill-rule:nonzero;stroke:none"
       transform="matrix(0.05025089,0,0,-0.05025089,-47.10243,243.7981)"
       clip-path="url(#clipPath120)" />
    <path
       id="path121"
       d="m 2223.24,3579.08 -275.25,130.62 -5.58,-11.77 275.24,-130.62 5.59,11.77"
       style="fill:#283049;fill-opacity:1;fill-rule:nonzero;stroke:none"
       transform="matrix(0.05025089,0,0,-0.05025089,-47.10243,243.7981)"
       clip-path="url(#clipPath122)" />
    <path
       id="path123"
       d="m 2230.91,3595.25 -275.24,130.63 -5.58,-11.77 275.24,-130.62 5.58,11.76"
       style="fill:#283049;fill-opacity:1;fill-rule:nonzero;stroke:none"
       transform="matrix(0.05025089,0,0,-0.05025089,-47.10243,243.7981)"
       clip-path="url(#clipPath124)" />
    <path
       id="path125"
       d="m 2238.59,3611.43 -275.24,130.63 -5.58,-11.76 275.24,-130.63 5.58,11.76"
       style="fill:#283049;fill-opacity:1;fill-rule:nonzero;stroke:none"
       transform="matrix(0.05025089,0,0,-0.05025089,-47.10243,243.7981)"
       clip-path="url(#clipPath126)" />
    <path
       id="path127"
       d="m 60.222914,63.683836 c 0.09799,-1.635667 -1.283406,-3.530126 -3.500977,-4.582882 -2.21757,-1.052253 -4.559262,-0.924113 -5.764281,0.185928 l 9.265258,4.396954"
       style="fill:#404b69;fill-opacity:1;fill-rule:nonzero;stroke:none;stroke-width:0.0502507" />
    <path
       id="path132"
       d="m 84.087063,133.23508 c 2.316568,-12.64111 -6.053222,-24.76615 -18.693833,-27.08221 -12.641111,-2.31657 -24.766148,6.05322 -27.082215,18.69384 -2.316062,12.64111 6.053225,24.76615 18.694338,27.08221 12.640609,2.31607 24.765648,-6.05322 27.08171,-18.69384"
       style="fill:#141a28;fill-opacity:1;fill-rule:nonzero;stroke:none;stroke-width:0.0502507" />
    <path
       id="path133"
       d="m 83.414204,133.11147 c 2.248226,-12.26876 -5.875332,-24.03752 -18.14459,-26.28574 -12.268753,-2.24822 -24.037514,5.87533 -26.285234,18.14409 -2.248226,12.26976 5.875332,24.03751 18.144089,26.28624 12.269253,2.24822 24.03751,-5.87533 26.285735,-18.14459"
       style="fill:#141a28;fill-opacity:1;fill-rule:nonzero;stroke:none;stroke-width:0.0502507" />
    <path
       id="path134"
       d="m 83.023756,133.04011 c 2.208527,-12.05368 -5.771819,-23.6154 -17.825498,-25.82393 -12.05318,-2.20903 -23.615406,5.77182 -25.82393,17.8255 -2.208528,12.05318 5.771814,23.61541 17.825494,25.82393 12.053684,2.20853 23.615407,-5.77232 25.823934,-17.8255"
       style="fill:#141a28;fill-opacity:1;fill-rule:nonzero;stroke:none;stroke-width:0.0502507" />
    <path
       id="path135"
       d="m 82.633808,132.96875 c 2.168829,-11.8381 -5.669304,-23.19329 -17.506908,-25.36262 -11.838103,-2.16933 -23.193297,5.6688 -25.362124,17.50741 -2.169332,11.8376 5.668801,23.19279 17.506907,25.36162 11.838101,2.16983 23.192793,-5.6688 25.362125,-17.50641"
       style="fill:#141a28;fill-opacity:1;fill-rule:nonzero;stroke:none;stroke-width:0.0502507" />
    <path
       id="path136"
       d="m 82.243357,132.8969 c 2.129636,-11.62253 -5.565283,-22.77069 -17.187812,-24.90032 -11.622529,-2.12964 -22.771189,5.56579 -24.900823,17.18781 -2.129632,11.62253 5.565788,22.77119 17.188317,24.90082 11.622529,2.12964 22.770684,-5.56578 24.900318,-17.18831"
       style="fill:#141a28;fill-opacity:1;fill-rule:nonzero;stroke:none;stroke-width:0.0502507" />
    <path
       id="path137"
       d="m 81.853409,132.82554 c 2.089938,-11.40695 -5.46277,-22.34858 -16.869725,-24.43851 -11.406949,-2.09044 -22.348578,5.46227 -24.438514,16.86922 -2.090436,11.40695 5.462275,22.34858 16.869224,24.43902 11.406952,2.08993 22.349081,-5.46278 24.439015,-16.86973"
       style="fill:#141a28;fill-opacity:1;fill-rule:nonzero;stroke:none;stroke-width:0.0502507" />
    <path
       id="path138"
       d="m 81.463466,132.75418 c 2.050737,-11.19187 -5.35976,-21.92647 -16.551135,-23.97721 -11.19188,-2.05074 -21.926475,5.35926 -23.977213,16.55063 -2.050738,11.19189 5.359257,21.92648 16.551134,23.97722 11.191378,2.05074 21.925971,-5.35926 23.977214,-16.55064"
       style="fill:#141a28;fill-opacity:1;fill-rule:nonzero;stroke:none;stroke-width:0.0502507" />
    <path
       id="path139"
       d="m 81.073015,132.68232 c 2.011042,-10.97579 -5.256244,-21.50386 -16.232039,-23.5154 -10.976303,-2.01104 -21.504367,5.25624 -23.51541,16.23254 -2.011539,10.97581 5.255742,21.50387 16.232042,23.51541 10.9758,2.01104 21.504367,-5.25624 23.515407,-16.23255"
       style="fill:#141a28;fill-opacity:1;fill-rule:nonzero;stroke:none;stroke-width:0.0502507" />
    <path
       id="path140"
       d="m 80.683069,132.61097 c 1.971342,-10.76023 -5.153229,-21.08226 -15.913954,-23.0536 -10.760225,-1.97185 -21.081753,5.15272 -23.0536,15.91345 -1.971845,10.76073 5.153228,21.08226 15.913451,23.0536 10.760223,1.97135 21.081756,-5.15272 23.054103,-15.91345"
       style="fill:#141a28;fill-opacity:1;fill-rule:nonzero;stroke:none;stroke-width:0.0502507" />
    <path
       id="path141"
       d="m 79.19564,132.33861 c 1.821598,-9.93963 -4.759259,-19.47323 -14.698887,-21.29432 -9.939123,-1.82159 -19.473222,4.75926 -21.294315,14.69889 -1.821092,9.93912 4.759762,19.47272 14.698887,21.29432 9.939629,1.82159 19.473228,-4.75977 21.294315,-14.69889"
       style="fill:#21293d;fill-opacity:1;fill-rule:nonzero;stroke:none;stroke-width:0.0502507" />
    <path
       id="path142"
       d="m 78.781575,132.26273 c 1.779384,-9.71048 -4.650219,-19.02499 -14.3607,-20.80437 -9.71048,-1.77938 -19.024985,4.65022 -20.804369,14.3607 -1.779386,9.71048 4.650216,19.02499 14.360699,20.80437 9.710481,1.77938 19.024989,-4.65022 20.80437,-14.3607"
       style="fill:#21293d;fill-opacity:1;fill-rule:nonzero;stroke:none;stroke-width:0.0502507" />
    <path
       id="path143"
       d="m 78.367507,132.18685 c 1.737172,-9.48184 -4.54067,-18.57675 -14.022509,-20.31392 -9.481841,-1.73768 -18.576749,4.54017 -20.314427,14.02201 -1.737172,9.48134 4.540671,18.57675 14.022511,20.31442 9.481844,1.73718 18.57675,-4.54067 20.314425,-14.02251"
       style="fill:#21293d;fill-opacity:1;fill-rule:nonzero;stroke:none;stroke-width:0.0502507" />
    <path
       id="path144"
       d="m 77.953442,132.11047 c 1.695464,-9.2527 -4.431125,-18.12801 -13.684324,-19.82347 -9.252696,-1.69547 -18.128511,4.43112 -19.823977,13.68381 -1.695463,9.2532 4.431126,18.12852 13.683819,19.82398 9.253201,1.69547 18.129016,-4.43112 19.824482,-13.68432"
       style="fill:#21293d;fill-opacity:1;fill-rule:nonzero;stroke:none;stroke-width:0.0502507" />
    <path
       id="path145"
       d="m 77.538872,132.03509 c 1.653754,-9.02455 -4.321577,-17.68027 -13.345633,-19.33403 -9.024054,-1.65375 -17.680273,4.32158 -19.33403,13.34564 -1.653254,9.02405 4.32158,17.68077 13.345633,19.33403 9.024556,1.65376 17.680273,-4.32158 19.33403,-13.34564"
       style="fill:#21293d;fill-opacity:1;fill-rule:nonzero;stroke:none;stroke-width:0.0502507" />
    <path
       id="path146"
       d="m 77.124804,131.95922 c 1.611546,-8.79542 -4.212031,-17.23204 -13.007443,-18.84409 -8.795414,-1.61154 -17.232036,4.21203 -18.844082,13.00744 -1.611548,8.79542 4.212029,17.23204 13.007943,18.84359 8.795414,1.61205 17.232034,-4.21153 18.843582,-13.00694"
       style="fill:#21293d;fill-opacity:1;fill-rule:nonzero;stroke:none;stroke-width:0.0502507" />
    <path
       id="path147"
       d="m 76.710734,131.88283 c 1.569842,-8.56677 -4.102481,-16.78379 -12.669253,-18.35363 -8.566769,-1.56934 -16.783795,4.10248 -18.353631,12.66925 -1.569842,8.56677 4.102481,16.7838 12.669252,18.35364 8.566269,1.56984 16.783796,-4.10248 18.353632,-12.66926"
       style="fill:#21293d;fill-opacity:1;fill-rule:nonzero;stroke:none;stroke-width:0.0502507" />
    <path
       id="path148"
       d="m 76.296166,131.80746 c 1.528131,-8.33813 -3.992432,-16.33606 -12.330562,-17.86369 -8.338132,-1.52763 -16.336062,3.99243 -17.863692,12.33056 -1.527625,8.33813 3.992938,16.33607 12.330567,17.86369 8.338129,1.52763 16.33606,-3.99293 17.863687,-12.33056"
       style="fill:#21293d;fill-opacity:1;fill-rule:nonzero;stroke:none;stroke-width:0.0502507" />
    <path
       id="path149"
       d="m 75.882101,131.73158 c 1.485916,-8.10949 -3.88339,-15.88783 -11.992377,-17.37375 -8.108984,-1.48591 -15.887321,3.88339 -17.373242,11.99288 -1.485916,8.10849 3.882888,15.88733 11.992377,17.37325 8.108984,1.48591 15.887321,-3.88339 17.373242,-11.99238"
       style="fill:#21293d;fill-opacity:1;fill-rule:nonzero;stroke:none;stroke-width:0.0502507" />
    <path
       id="path150"
       d="m 75.467531,131.6552 c 1.44421,-7.87985 -3.773339,-15.43909 -11.653686,-16.8828 -7.880345,-1.44421 -15.439583,3.77334 -16.883292,11.65369 -1.444213,7.88085 3.773839,15.43959 11.654186,16.8838 7.880344,1.44371 15.439083,-3.77384 16.882792,-11.65469"
       style="fill:#21293d;fill-opacity:1;fill-rule:nonzero;stroke:none;stroke-width:0.0502507" />
    <path
       id="path151"
       d="m 75.053461,131.57982 c 1.402503,-7.65221 -3.663791,-14.99135 -11.315494,-16.39335 -7.651705,-1.402 -14.991346,3.6643 -16.393347,11.3155 -1.402,7.6517 3.664291,14.99135 11.315996,16.39335 7.651705,1.402 14.990847,-3.6643 16.392845,-11.3155"
       style="fill:#21293d;fill-opacity:1;fill-rule:nonzero;stroke:none;stroke-width:0.0502507" />
    <path
       id="path152"
       d="m 74.639393,131.50344 c 1.360295,-7.42256 -3.554748,-14.54261 -10.977303,-15.9029 -7.423062,-1.36029 -14.543111,3.55475 -15.903405,10.97781 -1.359789,7.42256 3.554749,14.54261 10.977808,15.9029 7.422563,1.35979 14.542611,-3.55475 15.9029,-10.97781"
       style="fill:#21293d;fill-opacity:1;fill-rule:nonzero;stroke:none;stroke-width:0.0502507" />
    <path
       id="path153"
       d="m 74.225328,131.42756 c 1.31808,-7.19392 -3.445203,-14.09437 -10.63912,-15.41295 -7.194418,-1.31808 -14.09487,3.4452 -15.413455,10.63962 -1.318078,7.19392 3.4452,14.09437 10.639623,15.41245 7.193917,1.31858 14.094367,-3.4452 15.412952,-10.63912"
       style="fill:#21293d;fill-opacity:1;fill-rule:nonzero;stroke:none;stroke-width:0.0502507" />
    <path
       id="path154"
       d="m 73.810758,131.35218 c 1.276876,-6.96578 -3.335152,-13.64713 -10.30093,-14.923 -6.964773,-1.27637 -13.646131,3.33515 -14.922505,10.30042 -1.276374,6.96578 3.335655,13.64714 10.30093,14.92302 6.965275,1.27636 13.646131,-3.33566 14.922505,-10.30044"
       style="fill:#21293d;fill-opacity:1;fill-rule:nonzero;stroke:none;stroke-width:0.0502507" />
    <path
       id="path155"
       d="m 68.532403,130.38485 c 0.741703,-4.05022 -1.939682,-7.93461 -5.989405,-8.67732 -4.050218,-0.7417 -7.934613,1.93968 -8.676817,5.9894 -0.742209,4.05023 1.939179,7.93462 5.989402,8.67683 4.04972,0.7422 7.934616,-1.93969 8.67682,-5.98891"
       style="fill:#141a28;fill-opacity:1;fill-rule:nonzero;stroke:none;stroke-width:0.0502507" />
    <path
       id="path156"
       d="m 55.64707,124.06379 c -0.69296,-0.61054 -1.057783,-1.55928 -0.879387,-2.53364 0.240699,-1.31306 1.385416,-2.23165 2.674349,-2.23165 0.162309,0 0.327637,0.0146 0.493464,0.0447 1.18944,0.21809 2.05526,1.17838 2.207519,2.31556 -1.746718,0.24975 -3.337157,1.11457 -4.495945,2.40501"
       style="fill:#323c55;fill-opacity:1;fill-rule:nonzero;stroke:none;stroke-width:0.0502507" />
    <path
       id="path157"
       d="m 57.448065,124.74218 c -0.162814,0 -0.328142,-0.0146 -0.493467,-0.0447 -0.504015,-0.0925 -0.949743,-0.31809 -1.307528,-0.63367 1.158788,-1.29044 2.749227,-2.15526 4.495945,-2.405 0.0372,0.27637 0.03166,0.5628 -0.02111,0.85225 -0.2407,1.31256 -1.385419,2.23114 -2.673848,2.23114"
       style="fill:#2c354c;fill-opacity:1;fill-rule:nonzero;stroke:none;stroke-width:0.0502507" />
    <path
       id="path158"
       d="m 65.773629,143.2531 c 2.205011,-0.71155 4.213035,-1.92862 5.86177,-3.53766 -1.405522,1.88692 -3.51254,3.17184 -5.86177,3.53766"
       style="fill:#323c55;fill-opacity:1;fill-rule:nonzero;stroke:none;stroke-width:0.0502507" />
    <path
       id="path159"
       d="m 64.391732,143.36014 c -0.229145,0 -0.459296,-0.009 -0.690446,-0.0266 3.570824,-0.62562 6.774822,-2.57687 8.973801,-5.41403 -0.279395,0.64422 -0.629642,1.24622 -1.039688,1.79597 -1.648735,1.60903 -3.656759,2.82611 -5.86177,3.53766 -0.45276,0.0709 -0.914564,0.10703 -1.381897,0.10703"
       style="fill:#323c55;fill-opacity:1;fill-rule:nonzero;stroke:none;stroke-width:0.0502507" />
    <path
       id="path160"
       d="m 63.701286,143.33351 c -0.315074,-0.0241 -0.632161,-0.0648 -0.949241,-0.12312 -0.18442,-0.0336 -0.366331,-0.0729 -0.545224,-0.11708 4.51404,-0.3201 8.585869,-2.81154 10.948665,-6.59945 -0.122611,0.49547 -0.283414,0.97085 -0.480399,1.42561 -2.198979,2.83717 -5.402977,4.78841 -8.973801,5.41404"
       style="fill:#323c55;fill-opacity:1;fill-rule:nonzero;stroke:none;stroke-width:0.0502507" />
    <path
       id="path161"
       d="m 62.206821,143.09331 c -0.41507,-0.10252 -0.816576,-0.23216 -1.203508,-0.38744 0.07035,0.001 0.140701,0.002 0.211053,0.002 5.154234,0 9.850681,-2.92862 12.157702,-7.45221 -0.02413,0.23065 -0.05729,0.46181 -0.0995,0.69346 -0.03365,0.18392 -0.07287,0.36633 -0.117086,0.54523 -2.362796,3.78791 -6.434625,6.27935 -10.948665,6.59945"
       style="fill:#323c55;fill-opacity:1;fill-rule:nonzero;stroke:none;stroke-width:0.0502507" />
    <path
       id="path162"
       d="m 61.214366,142.70738 c -0.07035,0 -0.1407,-2.7e-4 -0.211053,-0.002 -0.345725,-0.13919 -0.679894,-0.29798 -1.000998,-0.47587 0.406027,0.0377 0.811049,0.0558 1.212554,0.0558 5.335135,2.6e-4 10.163244,-3.23717 12.205441,-8.13764 0.007,0.36583 -0.009,0.73517 -0.04824,1.10703 -2.307021,4.52359 -7.003468,7.45221 -12.157702,7.45221"
       style="fill:#323c55;fill-opacity:1;fill-rule:nonzero;stroke:none;stroke-width:0.0502507" />
    <path
       id="path163"
       d="m 61.214869,142.28578 c -0.401505,0 -0.806527,-0.0181 -1.212554,-0.0558 -0.292962,-0.16181 -0.574868,-0.3392 -0.845222,-0.53116 0.690449,0.11156 1.378384,0.16583 2.056773,0.16583 5.463276,2.7e-4 10.378316,-3.50651 12.133075,-8.71551 0.04271,0.32914 0.06784,0.6623 0.07337,0.99898 -2.042197,4.90047 -6.870306,8.13814 -12.205441,8.13764"
       style="fill:#323c55;fill-opacity:1;fill-rule:nonzero;stroke:none;stroke-width:0.0502507" />
    <path
       id="path164"
       d="m 61.213866,141.86467 c -0.678389,0 -1.366324,-0.0543 -2.056773,-0.16583 -2.521587,-1.78742 -4.025095,-4.80649 -3.793437,-8.01853 1.082905,1.3633 2.645207,2.35526 4.491927,2.69345 0.454268,0.0834 0.906526,0.12362 1.352253,0.12362 3.529621,0 6.665778,-2.51758 7.324567,-6.11253 0.278892,-1.5226 0.07387,-3.02158 -0.505524,-4.33916 2.899981,1.27487 4.914537,3.99193 5.320062,7.10347 -1.754759,5.209 -6.669799,8.71602 -12.133075,8.71551"
       style="fill:#323c55;fill-opacity:1;fill-rule:nonzero;stroke:none;stroke-width:0.0502507" />
    <path
       id="path165"
       d="m 61.207836,136.49738 c -0.445727,0 -0.897985,-0.0402 -1.352253,-0.12362 -1.84672,-0.33819 -3.409022,-1.33015 -4.491927,-2.69345 0.02363,-0.32814 0.06532,-0.65879 0.12613,-0.98994 0.798989,-4.36028 4.601474,-7.41201 8.881343,-7.41201 0.540194,0 1.088432,0.0487 1.639181,0.14974 0.709043,0.12965 1.383911,0.3392 2.016569,0.61759 0.579393,1.31758 0.784416,2.81656 0.505524,4.33916 -0.658789,3.59495 -3.794946,6.11253 -7.324567,6.11253"
       style="fill:#2c354c;fill-opacity:1;fill-rule:nonzero;stroke:none;stroke-width:0.0502507" />
    <path
       id="path166"
       d="m 140.18766,124.21756 -10.96927,-4.26781 c -1.53717,-0.63567 -3.26681,0.32111 -3.5447,1.9618 l -0.702,4.1457 c -0.19497,1.15124 0.54975,2.25224 1.69144,2.49998 l 5.96277,1.63767 c 0.79196,0.17186 1.61809,0.09 2.36029,-0.23517 l 3.19847,-1.39848 2.003,-4.34369"
       style="fill:#353e56;fill-opacity:1;fill-rule:nonzero;stroke:none;stroke-width:0.0502507" />
    <path
       id="path167"
       d="m 132.52591,113.26387 c 0.46281,-0.97486 0.0472,-2.14018 -0.92763,-2.60299 -0.97487,-0.46281 -2.14019,-0.0472 -2.603,0.92763 -0.46281,0.97487 -0.0472,2.14018 0.92763,2.603 0.97487,0.46281 2.14018,0.0477 2.603,-0.92764"
       style="fill:#353e56;fill-opacity:1;fill-rule:nonzero;stroke:none;stroke-width:0.0502507" />
  </g>
</svg>
